<?xml version="1.0" encoding="UTF-8" standalone="no"?>
<svg
   xmlns:dc="http://purl.org/dc/elements/1.1/"
   xmlns:cc="http://creativecommons.org/ns#"
   xmlns:rdf="http://www.w3.org/1999/02/22-rdf-syntax-ns#"
   xmlns:svg="http://www.w3.org/2000/svg"
   xmlns="http://www.w3.org/2000/svg"
   height="100%"
   width="100%"
   version="1.1"
   viewBox="0 0 64 64"
   data-name="online-booking"
   >
  <metadata>
    <rdf:RDF>
      <cc:Work
         rdf:about="">
        <dc:format>image/svg+xml</dc:format>
        <dc:type
           rdf:resource="http://purl.org/dc/dcmitype/StillImage" />
        <dc:title>bar</dc:title>
      </cc:Work>
    </rdf:RDF>
  </metadata>
  <title>online-booking</title>
  <g style="fill:#ffffff;fill-opacity:1;stroke:none;stroke-width:1px;">
    <path  d="m 52.36138,35.711859 c 0,-0.453404 -0.279018,-0.837054 -0.697545,-1.01144 -0.139509,-0.06975 -0.279017,-0.104631 -0.418526,-0.104631 -0.279018,0 -0.558036,0.104631 -0.802177,0.348772 l -2.232143,2.232143 c -0.209263,0.209263 -0.313895,0.488281 -0.313895,0.767299 l 0,8.858817 c 0,3.069196 -2.51116,5.580357 -5.580357,5.580357 l -29.017857,0 c -3.069196,0 -5.5803571,-2.511161 -5.5803571,-5.580357 l 0,-29.017857 c 0,-3.069197 2.5111611,-5.580357 5.5803571,-5.580357 l 29.017857,0 c 0.523159,0 1.046317,0.06975 1.569476,0.209263 0.104631,0.03488 0.209263,0.06975 0.313895,0.06975 0.279018,0 0.592913,-0.139509 0.802176,-0.348772 l 1.708984,-1.708984 c 0.279018,-0.279018 0.38365,-0.6277905 0.313896,-1.01144 C 46.955409,9.0656537 46.711268,8.7517586 46.397373,8.6122496 45.106916,8.0193367 43.711826,7.7403188 42.316737,7.7403188 l -29.017857,0 c -5.5454799,0 -10.0446428,4.4991632 -10.0446428,10.0446432 l 0,29.017857 c 0,5.54548 4.4991629,10.044643 10.0446428,10.044643 l 29.017857,0 c 5.54548,0 10.044643,-4.499163 10.044643,-10.044643 l 0,-11.09096 z m 8.056641,-17.054966 c 1.116071,-1.116072 1.116071,-2.859934 0,-3.976005 l -3.836496,-3.836495 c -1.116071,-1.1160719 -2.859933,-1.1160719 -3.976004,0 L 30.039951,33.409962 20.867239,24.23725 c -1.116071,-1.116072 -2.859933,-1.116072 -3.976004,0 l -3.836496,3.836495 c -1.116071,1.116072 -1.116071,2.859933 0,3.976005 l 14.99721,14.997209 c 1.116072,1.116072 2.859933,1.116072 3.976005,0 L 60.418021,18.656893 Z" />
  </g>
</svg>
