<?xml version="1.0" encoding="UTF-8" standalone="no"?>
<svg
   xmlns:dc="http://purl.org/dc/elements/1.1/"
   xmlns:cc="http://creativecommons.org/ns#"
   xmlns:rdf="http://www.w3.org/1999/02/22-rdf-syntax-ns#"
   xmlns:svg="http://www.w3.org/2000/svg"
   xmlns="http://www.w3.org/2000/svg"
   height="100%"
   width="100%"
   version="1.1"
   viewBox="0 0 64 64"
   >
  <metadata>
    <rdf:RDF>
      <cc:Work
         rdf:about="">
        <dc:format>image/svg+xml</dc:format>
        <dc:type
           rdf:resource="http://purl.org/dc/dcmitype/StillImage" />
        <dc:title></dc:title>
      </cc:Work>
    </rdf:RDF>
  </metadata>
  <g style="fill:#ffffff;fill-opacity:1;stroke:none;stroke-width:1px;stroke-linecap:butt;stroke-linejoin:miter;stroke-opacity:1">
    <path d="m 47.66079,41.40031 c 0,-8.069196 -6.964285,-10.78125 -13.125,-13.158482 -4.754464,-1.841518 -8.839285,-3.415179 -8.839285,-6.964286 0,-3.046875 2.946428,-5.15625 7.19866,-5.15625 5.022322,0 9.073661,3.582589 9.107143,3.616072 0.267857,0.200892 0.569197,0.301339 0.904018,0.234375 0.334821,-0.03348 0.602679,-0.234375 0.770089,-0.535715 l 2.712054,-4.888393 c 0.234375,-0.401785 0.167411,-0.904017 -0.167411,-1.272321 -0.133928,-0.133929 -3.75,-3.8169643 -10.546875,-4.5870536 l 0,-5.8928571 c 0,-0.6026786 -0.46875,-1.0714286 -1.071428,-1.0714286 l -4.52009,0 c -0.569196,0 -1.071428,0.46875 -1.071428,1.0714286 l 0,6.0267857 c -6.997768,1.339286 -11.819197,6.428571 -11.819197,12.589286 0,8.404018 7.5,11.41741 13.526786,13.794643 4.520089,1.808035 8.470982,3.381696 8.470982,6.595982 0,3.783482 -3.549107,5.524553 -6.830357,5.524553 -5.926339,0 -10.613839,-4.486607 -10.680804,-4.520089 -0.200892,-0.234375 -0.502232,-0.334821 -0.803571,-0.301339 -0.301339,0.03348 -0.602679,0.16741 -0.770089,0.401785 l -3.448661,4.52009 c -0.301339,0.401785 -0.267857,0.970982 0.06696,1.372768 0.167411,0.200892 4.453125,4.888392 12.287947,5.993303 l 0,5.859375 c 0,0.602679 0.502232,1.071429 1.071428,1.071429 l 4.52009,0 c 0.602678,0 1.071428,-0.46875 1.071428,-1.071429 l 0,-5.859375 C 42.772397,53.621292 47.66079,48.230667 47.66079,41.40031 Z" />
  </g>
</svg>
