<?xml version="1.0" encoding="UTF-8" standalone="no"?>
<svg
   xmlns:dc="http://purl.org/dc/elements/1.1/"
   xmlns:cc="http://creativecommons.org/ns#"
   xmlns:rdf="http://www.w3.org/1999/02/22-rdf-syntax-ns#"
   xmlns:svg="http://www.w3.org/2000/svg"
   xmlns="http://www.w3.org/2000/svg"
   height="100%"
   width="100%"
   version="1.1"
   viewBox="0 0 64 64"
   >
  <metadata>
    <rdf:RDF>
      <cc:Work
         rdf:about="">
        <dc:format>image/svg+xml</dc:format>
        <dc:type
           rdf:resource="http://purl.org/dc/dcmitype/StillImage" />
        <dc:title></dc:title>
      </cc:Work>
    </rdf:RDF>
  </metadata>
  <g style="fill:#ffffff;fill-opacity:1;stroke:none;stroke-width:1px;stroke-linecap:butt;stroke-linejoin:miter;stroke-opacity:1">
    <path d="m 17.467312,53.152538 c 0,2.377232 -1.908482,4.285715 -4.285714,4.285715 -2.377232,0 -4.2857143,-1.908483 -4.2857143,-4.285715 0,-2.377232 1.9084823,-4.285714 4.2857143,-4.285714 2.377232,0 4.285714,1.908482 4.285714,4.285714 z m 12.857143,0 c 0,2.377232 -1.908482,4.285715 -4.285714,4.285715 -2.377232,0 -4.285714,-1.908483 -4.285714,-4.285715 0,-2.377232 1.908482,-4.285714 4.285714,-4.285714 2.377232,0 4.285714,1.908482 4.285714,4.285714 z M 17.467312,40.295395 c 0,2.377233 -1.908482,4.285715 -4.285714,4.285715 -2.377232,0 -4.2857143,-1.908482 -4.2857143,-4.285715 0,-2.377232 1.9084823,-4.285714 4.2857143,-4.285714 2.377232,0 4.285714,1.908482 4.285714,4.285714 z m 25.714286,12.857143 c 0,2.377232 -1.908482,4.285715 -4.285714,4.285715 -2.377232,0 -4.285715,-1.908483 -4.285715,-4.285715 0,-2.377232 1.908483,-4.285714 4.285715,-4.285714 2.377232,0 4.285714,1.908482 4.285714,4.285714 z M 30.324455,40.295395 c 0,2.377233 -1.908482,4.285715 -4.285714,4.285715 -2.377232,0 -4.285714,-1.908482 -4.285714,-4.285715 0,-2.377232 1.908482,-4.285714 4.285714,-4.285714 2.377232,0 4.285714,1.908482 4.285714,4.285714 z M 17.467312,27.438253 c 0,2.377232 -1.908482,4.285714 -4.285714,4.285714 -2.377232,0 -4.2857143,-1.908482 -4.2857143,-4.285714 0,-2.377233 1.9084823,-4.285715 4.2857143,-4.285715 2.377232,0 4.285714,1.908482 4.285714,4.285715 z m 25.714286,12.857142 c 0,2.377233 -1.908482,4.285715 -4.285714,4.285715 -2.377232,0 -4.285715,-1.908482 -4.285715,-4.285715 0,-2.377232 1.908483,-4.285714 4.285715,-4.285714 2.377232,0 4.285714,1.908482 4.285714,4.285714 z M 30.324455,27.438253 c 0,2.377232 -1.908482,4.285714 -4.285714,4.285714 -2.377232,0 -4.285714,-1.908482 -4.285714,-4.285714 0,-2.377233 1.908482,-4.285715 4.285714,-4.285715 2.377232,0 4.285714,1.908482 4.285714,4.285715 z m 25.714286,25.714285 c 0,2.34375 -1.941964,4.285715 -4.285714,4.285715 -2.34375,0 -4.285715,-1.941965 -4.285715,-4.285715 l 0,-12.857143 c 0,-2.34375 1.941965,-4.285714 4.285715,-4.285714 2.34375,0 4.285714,1.941964 4.285714,4.285714 l 0,12.857143 z M 43.181598,27.438253 c 0,2.377232 -1.908482,4.285714 -4.285714,4.285714 -2.377232,0 -4.285715,-1.908482 -4.285715,-4.285714 0,-2.377233 1.908483,-4.285715 4.285715,-4.285715 2.377232,0 4.285714,1.908482 4.285714,4.285715 z M 56.038741,16.723967 c 0,1.171875 -0.970982,2.142857 -2.142857,2.142857 l -42.857143,0 c -1.1718752,0 -2.1428573,-0.970982 -2.1428573,-2.142857 l 0,-8.5714287 c 0,-1.171875 0.9709821,-2.1428571 2.1428573,-2.1428571 l 42.857143,0 c 1.171875,0 2.142857,0.9709821 2.142857,2.1428571 l 0,8.5714287 z m 0,10.714286 c 0,2.377232 -1.908482,4.285714 -4.285714,4.285714 -2.377233,0 -4.285715,-1.908482 -4.285715,-4.285714 0,-2.377233 1.908482,-4.285715 4.285715,-4.285715 2.377232,0 4.285714,1.908482 4.285714,4.285715 z M 60.324455,6.0096812 c 0,-2.34375 -1.941964,-4.2857143 -4.285714,-4.2857143 l -47.1428573,0 c -2.34375,0 -4.2857143,1.9419643 -4.2857143,4.2857143 l 0,51.4285718 c 0,2.34375 1.9419643,4.285714 4.2857143,4.285714 l 47.1428573,0 c 2.34375,0 4.285714,-1.941964 4.285714,-4.285714 l 0,-51.4285718 z" />
  </g>
</svg>
