<?xml version="1.0" encoding="UTF-8" standalone="no"?>
<svg
   xmlns:dc="http://purl.org/dc/elements/1.1/"
   xmlns:cc="http://creativecommons.org/ns#"
   xmlns:rdf="http://www.w3.org/1999/02/22-rdf-syntax-ns#"
   xmlns:svg="http://www.w3.org/2000/svg"
   xmlns="http://www.w3.org/2000/svg"
   height="100%"
   width="100%"
   version="1.1"
   viewBox="0 0 64 64"
   >
  <metadata>
    <rdf:RDF>
      <cc:Work
         rdf:about="">
        <dc:format>image/svg+xml</dc:format>
        <dc:type
           rdf:resource="http://purl.org/dc/dcmitype/StillImage" />
        <dc:title></dc:title>
      </cc:Work>
    </rdf:RDF>
  </metadata>
    <g style="fill:#ffffff;fill-opacity:1;stroke:none;stroke-width:1px;">
    <path d="m 21.169657,32.504238 c -1.523438,-2.197265 -2.373047,-4.833984 -2.373047,-7.5 0,-0.644531 0.05859,-1.289062 0.146484,-1.933594 -1.259765,0.439454 -2.548828,0.673829 -3.896484,0.673829 -3.955078,0 -7.001953,-2.490235 -7.6171874,-2.490235 -3.7207031,0 -3.6328125,7.96875 -3.6328125,10.341797 0,3.251953 2.7539063,4.658203 5.6835938,4.658203 l 3.9257811,0 c 1.962891,-2.34375 4.716797,-3.662109 7.763672,-3.75 z m 31.376953,18.66211 c 0,-6.621094 -1.552734,-16.78711 -10.136719,-16.78711 -0.996093,0 -4.628906,4.072266 -10.488281,4.072266 -5.859375,0 -9.492187,-4.072266 -10.488281,-4.072266 -8.583985,0 -10.136719,10.166016 -10.136719,16.78711 0,4.746093 3.134766,7.58789 7.822266,7.58789 l 25.605468,0 c 4.6875,0 7.822266,-2.841797 7.822266,-7.58789 z m -30,-37.41211 c 0,-4.1308592 -3.369141,-7.4999999 -7.5,-7.4999999 -4.130859,0 -7.4999999,3.3691407 -7.4999999,7.4999999 0,4.13086 3.3691409,7.5 7.4999999,7.5 4.130859,0 7.5,-3.36914 7.5,-7.5 z m 20.625,11.25 c 0,-6.210937 -5.039062,-11.25 -11.25,-11.25 -6.210937,0 -11.25,5.039063 -11.25,11.25 0,6.210938 5.039063,11.25 11.25,11.25 6.210938,0 11.25,-5.039062 11.25,-11.25 z m 16.875,6.591797 c 0,-2.373047 0.08789,-10.341797 -3.632812,-10.341797 -0.615235,0 -3.66211,2.490235 -7.617188,2.490235 -1.347656,0 -2.636719,-0.234375 -3.896484,-0.673829 0.08789,0.644532 0.146484,1.289063 0.146484,1.933594 0,2.666016 -0.849609,5.302735 -2.373047,7.5 3.046875,0.08789 5.800781,1.40625 7.763672,3.75 l 3.925781,0 c 2.929688,0 5.683594,-1.40625 5.683594,-4.658203 z m -3.75,-17.841797 c 0,-4.1308592 -3.369141,-7.4999999 -7.5,-7.4999999 -4.130859,0 -7.5,3.3691407 -7.5,7.4999999 0,4.13086 3.369141,7.5 7.5,7.5 4.130859,0 7.5,-3.36914 7.5,-7.5 z" />
  </g>
</svg>
