<?xml version="1.0" encoding="UTF-8" standalone="no"?>
<svg
   xmlns:dc="http://purl.org/dc/elements/1.1/"
   xmlns:cc="http://creativecommons.org/ns#"
   xmlns:rdf="http://www.w3.org/1999/02/22-rdf-syntax-ns#"
   xmlns:svg="http://www.w3.org/2000/svg"
   xmlns="http://www.w3.org/2000/svg"
   height="100%"
   width="100%"
   version="1.1"
   viewBox="0 0 64 64"
   >
  <metadata
     id="metadata13">
    <rdf:RDF>
      <cc:Work
         rdf:about="">
        <dc:format>image/svg+xml</dc:format>
        <dc:type
           rdf:resource="http://purl.org/dc/dcmitype/StillImage" />
        <dc:title></dc:title>
      </cc:Work>
    </rdf:RDF>
  </metadata>
  <g style="fill:#ffffff;fill-opacity:1;stroke:none;stroke-width:1px;">
    <path d="m 35.703843,56.165861 c 0,2.087053 -1.707589,3.794643 -3.794642,3.794643 -2.087054,0 -3.794643,-1.70759 -3.794643,-3.794643 0,-2.087054 1.707589,-3.794643 3.794643,-3.794643 2.087053,0 3.794642,1.707589 3.794642,3.794643 z m 9.866072,-7.589286 c 0,0.806362 -0.711496,1.517857 -1.517857,1.517857 l -24.285715,0 c -0.806361,0 -1.517857,-0.711495 -1.517857,-1.517857 l 0,-33.392857 c 0,-0.806362 0.711496,-1.517857 1.517857,-1.517857 l 24.285715,0 c 0.806361,0 1.517857,0.711495 1.517857,1.517857 l 0,33.392857 z M 36.462772,8.3533609 c 0,0.4268973 -0.332031,0.7589285 -0.758929,0.7589285 l -7.589285,0 c -0.426898,0 -0.758929,-0.3320312 -0.758929,-0.7589285 0,-0.4268974 0.332031,-0.7589286 0.758929,-0.7589286 l 7.589285,0 c 0.426898,0 0.758929,0.3320312 0.758929,0.7589286 z M 50.123486,7.5944323 c 0,-3.3203125 -2.751116,-6.0714286 -6.071428,-6.0714286 l -24.285715,0 c -3.320312,0 -6.071428,2.7511161 -6.071428,6.0714286 l 0,48.5714287 c 0,3.320312 2.751116,6.071428 6.071428,6.071428 l 24.285715,0 c 3.320312,0 6.071428,-2.751116 6.071428,-6.071428 l 0,-48.5714287 z" />
  </g>
</svg>
