<?xml version="1.0" encoding="UTF-8" standalone="no"?>
<svg
   xmlns:dc="http://purl.org/dc/elements/1.1/"
   xmlns:cc="http://creativecommons.org/ns#"
   xmlns:rdf="http://www.w3.org/1999/02/22-rdf-syntax-ns#"
   xmlns:svg="http://www.w3.org/2000/svg"
   xmlns="http://www.w3.org/2000/svg"
   id="Layer_1"
   viewBox="0 0 64 64"
   height="100%"
   width="100%"
   version="1.1">
  <metadata
     id="metadata13">
    <rdf:RDF>
      <cc:Work
         rdf:about="">
        <dc:format>image/svg+xml</dc:format>
        <dc:type
           rdf:resource="http://purl.org/dc/dcmitype/StillImage" />
        <dc:title></dc:title>
      </cc:Work>
    </rdf:RDF>
  </metadata>
  <defs
     id="defs3">
    <style
       id="style5" />
  </defs>
  <path
     id="path4168"
     d="M 25.191406 1.7734375 C 18.448102 1.7734375 12.978516 7.2430258 12.978516 13.986328 C 12.978516 20.729631 18.448102 26.201172 25.191406 26.201172 C 31.93471 26.201172 37.40625 20.729631 37.40625 13.986328 C 37.40625 7.2430258 31.93471 1.7734375 25.191406 1.7734375 z M 15.236328 24.166016 C 6.9026233 24.166016 4.8339844 33.835659 4.8339844 42.201172 C 4.8339844 46.845145 7.8878345 50.630859 11.609375 50.630859 C 16.049014 50.671182 20.504773 50.683706 24.892578 50.693359 L 24.892578 36.011719 C 24.892578 33.832738 26.678441 32.046875 28.857422 32.046875 L 44.191406 32.046875 C 42.780721 27.557235 40.070671 24.166016 35.146484 24.166016 C 32.570034 26.678851 29.071986 28.236328 25.191406 28.236328 C 21.310826 28.236328 17.812779 26.678851 15.236328 24.166016 z "
     style="font-style:normal;font-variant:normal;font-weight:normal;font-stretch:normal;font-size:60px;line-height:125%;font-family:FontAwesome;-inkscape-font-specification:FontAwesome;letter-spacing:0px;word-spacing:0px;fill:#ffae1a;fill-opacity:1;stroke:none;stroke-width:1px;stroke-linecap:butt;stroke-linejoin:miter;stroke-opacity:1" />
  <rect
     y="35.044575"
     x="28.38015"
     height="25.120268"
     width="22.819176"
     id="rect4264"
     style="fill:#ffffff;fill-opacity:1;stroke:none;stroke-width:4;stroke-linecap:round;stroke-linejoin:round;stroke-miterlimit:4;stroke-dasharray:none;stroke-opacity:1" />
  <g
     id="text4230"
     style="font-style:normal;font-weight:normal;font-size:50px;line-height:125%;font-family:sans-serif;letter-spacing:0px;word-spacing:0px;fill:#ffae1a;fill-opacity:1;stroke:none;stroke-width:1px;stroke-linecap:butt;stroke-linejoin:miter;stroke-opacity:1">
    <path
       id="path4262"
       style="font-size:27.5px"
       d="m 32.786011,57.618038 c 0,1.089565 -0.874721,1.964286 -1.964285,1.964286 -1.089565,0 -1.964286,-0.874721 -1.964286,-1.964286 0,-1.089565 0.874721,-1.964286 1.964286,-1.964286 1.089564,0 1.964285,0.874721 1.964285,1.964286 z m 5.892857,0 c 0,1.089565 -0.874721,1.964286 -1.964285,1.964286 -1.089565,0 -1.964286,-0.874721 -1.964286,-1.964286 0,-1.089565 0.874721,-1.964286 1.964286,-1.964286 1.089564,0 1.964285,0.874721 1.964285,1.964286 z m -5.892857,-5.892857 c 0,1.089565 -0.874721,1.964286 -1.964285,1.964286 -1.089565,0 -1.964286,-0.874721 -1.964286,-1.964286 0,-1.089565 0.874721,-1.964286 1.964286,-1.964286 1.089564,0 1.964285,0.874721 1.964285,1.964286 z m 11.785715,5.892857 c 0,1.089565 -0.874721,1.964286 -1.964286,1.964286 -1.089565,0 -1.964286,-0.874721 -1.964286,-1.964286 0,-1.089565 0.874721,-1.964286 1.964286,-1.964286 1.089565,0 1.964286,0.874721 1.964286,1.964286 z m -5.892858,-5.892857 c 0,1.089565 -0.874721,1.964286 -1.964285,1.964286 -1.089565,0 -1.964286,-0.874721 -1.964286,-1.964286 0,-1.089565 0.874721,-1.964286 1.964286,-1.964286 1.089564,0 1.964285,0.874721 1.964285,1.964286 z m -5.892857,-5.892857 c 0,1.089565 -0.874721,1.964286 -1.964285,1.964286 -1.089565,0 -1.964286,-0.874721 -1.964286,-1.964286 0,-1.089565 0.874721,-1.964286 1.964286,-1.964286 1.089564,0 1.964285,0.874721 1.964285,1.964286 z m 11.785715,5.892857 c 0,1.089565 -0.874721,1.964286 -1.964286,1.964286 -1.089565,0 -1.964286,-0.874721 -1.964286,-1.964286 0,-1.089565 0.874721,-1.964286 1.964286,-1.964286 1.089565,0 1.964286,0.874721 1.964286,1.964286 z m -5.892858,-5.892857 c 0,1.089565 -0.874721,1.964286 -1.964285,1.964286 -1.089565,0 -1.964286,-0.874721 -1.964286,-1.964286 0,-1.089565 0.874721,-1.964286 1.964286,-1.964286 1.089564,0 1.964285,0.874721 1.964285,1.964286 z m 11.785715,11.785714 c 0,1.074219 -0.890067,1.964286 -1.964286,1.964286 -1.074219,0 -1.964286,-0.890067 -1.964286,-1.964286 l 0,-5.892857 c 0,-1.074219 0.890067,-1.964286 1.964286,-1.964286 1.074219,0 1.964286,0.890067 1.964286,1.964286 l 0,5.892857 z M 44.571726,45.832324 c 0,1.089565 -0.874721,1.964286 -1.964286,1.964286 -1.089565,0 -1.964286,-0.874721 -1.964286,-1.964286 0,-1.089565 0.874721,-1.964286 1.964286,-1.964286 1.089565,0 1.964286,0.874721 1.964286,1.964286 z m 5.892857,-4.910714 c 0,0.537109 -0.445034,0.982142 -0.982143,0.982142 l -19.642857,0 c -0.53711,0 -0.982143,-0.445033 -0.982143,-0.982142 l 0,-3.928572 c 0,-0.537109 0.445033,-0.982143 0.982143,-0.982143 l 19.642857,0 c 0.537109,0 0.982143,0.445034 0.982143,0.982143 l 0,3.928572 z m 0,4.910714 c 0,1.089565 -0.874721,1.964286 -1.964286,1.964286 -1.089565,0 -1.964286,-0.874721 -1.964286,-1.964286 0,-1.089565 0.874721,-1.964286 1.964286,-1.964286 1.089565,0 1.964286,0.874721 1.964286,1.964286 z m 1.964285,-9.821429 c 0,-1.074218 -0.890067,-1.964285 -1.964285,-1.964285 l -21.607143,0 c -1.074219,0 -1.964286,0.890067 -1.964286,1.964285 l 0,23.571429 c 0,1.074219 0.890067,1.964286 1.964286,1.964286 l 21.607143,0 c 1.074218,0 1.964285,-0.890067 1.964285,-1.964286 l 0,-23.571429 z" />
  </g>
</svg>
