<?xml version="1.0" encoding="UTF-8" standalone="no"?>
<!-- Created with Inkscape (http://www.inkscape.org/) -->

<svg
   xmlns:dc="http://purl.org/dc/elements/1.1/"
   xmlns:cc="http://creativecommons.org/ns#"
   xmlns:rdf="http://www.w3.org/1999/02/22-rdf-syntax-ns#"
   xmlns:svg="http://www.w3.org/2000/svg"
   xmlns="http://www.w3.org/2000/svg"
   version="1.1"
   width="100%"
   height="100%"
   viewBox="0 0 64 64"
   id="Layer_1">
  <metadata
     id="metadata13">
    <rdf:RDF>
      <cc:Work
         rdf:about="">
        <dc:format>image/svg+xml</dc:format>
        <dc:type
           rdf:resource="http://purl.org/dc/dcmitype/StillImage" />
        <dc:title></dc:title>
      </cc:Work>
    </rdf:RDF>
  </metadata>
  <defs
     id="defs3">
    <style
       id="style5" />
  </defs>
  <g
     id="text2988"
     style="font-size:64px;font-style:normal;font-variant:normal;font-weight:normal;font-stretch:normal;line-height:125%;letter-spacing:0px;word-spacing:0px;fill:#ffae1a;fill-opacity:1;stroke:none;font-family:FontAwesome;-inkscape-font-specification:FontAwesome">
    <path
       d="m 24.010117,32.755058 c 2.912991,-0.07364 5.337151,-1.078132 7.272487,-3.013462 1.935284,-1.93529 2.93977,-4.35945 3.013462,-7.272487 -0.07369,-2.912984 -1.078178,-5.337144 -3.013462,-7.272489 -1.935337,-1.935276 -4.359497,-2.939762 -7.272487,-3.013461 -2.91303,0.0737 -5.33719,1.078187 -7.272489,3.013462 -1.935322,1.935344 -2.939808,4.359504 -3.013461,7.272488 0.07365,2.913038 1.07814,5.337198 3.013462,7.272487 1.935298,1.93533 4.359458,2.939817 7.272488,3.013462 z m 28.848874,8.571625 6.669796,-6.669795 c 0.160662,-0.165168 0.241021,-0.37053 0.241077,-0.616086 -5.5e-5,-0.223203 -0.08041,-0.419636 -0.241077,-0.589299 l -3.642941,-3.642941 c -0.169698,-0.160698 -0.366131,-0.241057 -0.589299,-0.241077 -0.245592,2.1e-5 -0.450953,0.08038 -0.616086,0.241077 l -6.669795,6.669796 -6.669796,-6.669796 c -0.165219,-0.160698 -0.37058,-0.241057 -0.616085,-0.241077 -0.223254,2.1e-5 -0.419687,0.08038 -0.589299,0.241077 l -3.642941,3.642941 c -0.16075,0.169662 -0.241109,0.366095 -0.241077,0.589299 -3.1e-5,0.245556 0.08033,0.450918 0.241077,0.616086 l 6.669796,6.669795 -6.669796,6.669796 c -0.16075,0.165183 -0.241109,0.370545 -0.241077,0.616085 -3.1e-5,0.223221 0.08033,0.419654 0.241077,0.589299 l 3.642941,3.642941 c 0.169611,0.160714 0.366044,0.241073 0.589299,0.241077 0.245505,-3e-6 0.450866,-0.08036 0.616085,-0.241077 l 6.669796,-6.669796 6.669795,6.669796 c 0.165133,0.160714 0.370494,0.241073 0.616086,0.241077 0.223169,-3e-6 0.419602,-0.08036 0.589299,-0.241077 l 3.642941,-3.642941 c 0.160662,-0.169646 0.241021,-0.366079 0.241077,-0.589299 -5.5e-5,-0.24554 -0.08041,-0.450902 -0.241077,-0.616085 z m -13.339591,0 -4.848325,-4.848325 c -0.322581,-0.325887 -0.568122,-0.698663 -0.736625,-1.11833 -0.16856,-0.419638 -0.253383,-0.859379 -0.254469,-1.319226 0.005,-0.62723 0.135576,-1.154028 0.391749,-1.580394 0.256115,-0.426331 0.607685,-0.845983 1.054712,-1.258957 -0.50897,-0.107126 -1.017909,-0.160699 -1.52682,-0.160718 -0.210971,0.0023 -0.398475,0.04466 -0.562514,0.127236 -0.164094,0.08261 -0.324812,0.191987 -0.482153,0.328132 -1.271819,1.026826 -2.598858,1.82595 -3.981119,2.397375 -1.382308,0.571456 -2.903546,0.861642 -4.563719,0.870557 -1.660212,-0.0089 -3.181451,-0.299099 -4.563722,-0.870557 -1.382299,-0.571425 -2.709337,-1.370549 -3.981117,-2.397375 -0.157381,-0.136145 -0.318099,-0.245523 -0.482155,-0.328133 -0.164076,-0.08257 -0.35158,-0.124984 -0.562512,-0.127235 -2.585218,0.0774 -4.5488856,0.955398 -5.8910082,2.63399 -1.3421294,1.678624 -2.248234,3.693549 -2.7183166,6.04478 -0.4700839,2.351252 -0.689665,4.574515 -0.6587441,6.669796 0.030135,2.19927 0.6863995,3.901315 1.9687951,5.106143 1.2823916,1.204824 3.0101078,1.815328 5.1831548,1.831516 l 23.41125,0 c 0.406227,-4e-6 0.799093,-0.02679 1.178598,-0.08036 l -2.223265,-2.223265 c -0.322581,-0.326459 -0.568122,-0.698119 -0.736625,-1.114981 -0.16856,-0.416862 -0.253383,-0.848791 -0.254469,-1.295789 0.0011,-0.459829 0.08591,-0.899571 0.254469,-1.319227 0.168502,-0.41965 0.414043,-0.792426 0.736625,-1.118329 z"
       id="path2993"
       style="font-size:48px" />
  </g>
</svg>
