<?xml version="1.0" encoding="UTF-8" standalone="no"?>
<svg
   xmlns:dc="http://purl.org/dc/elements/1.1/"
   xmlns:cc="http://creativecommons.org/ns#"
   xmlns:rdf="http://www.w3.org/1999/02/22-rdf-syntax-ns#"
   xmlns:svg="http://www.w3.org/2000/svg"
   xmlns="http://www.w3.org/2000/svg"
   version="1.1"
   width="100%"
   height="100%"
   viewBox="0 0 64 64"
   id="Layer_1">
  <metadata
     id="metadata13">
    <rdf:RDF>
      <cc:Work
         rdf:about="">
        <dc:format>image/svg+xml</dc:format>
        <dc:type
           rdf:resource="http://purl.org/dc/dcmitype/StillImage" />
        <dc:title></dc:title>
      </cc:Work>
    </rdf:RDF>
  </metadata>
  <defs
     id="defs3">
    <style
       id="style5" />
  </defs>
  <g
     id="text4138"
     style="font-style:normal;font-weight:normal;font-size:50px;line-height:125%;font-family:sans-serif;letter-spacing:0px;word-spacing:0px;fill:#ffae1a;fill-opacity:1;stroke:none;stroke-width:1px;stroke-linecap:butt;stroke-linejoin:miter;stroke-opacity:1">
    <path
       id="path4143"
       style="font-size:60px"
       d="m 14.655001,56.507416 c 0,-2.310268 -1.473214,-4.05134 -3.716517,-4.587054 l 3.180803,-3.850446 0,-2.946429 -11.1495534,0 0,5.089286 3.5491072,0 0,-1.774554 c 1.0714285,0 2.1763393,-0.06696 3.2477678,-0.06696 l 0,0.03348 c -1.4397321,1.305804 -2.5446428,3.013393 -3.75,4.553572 l 0.8705357,1.875 c 1.3727679,-0.100447 3.5156247,0 3.5156247,1.875 0,1.339285 -1.2388389,1.908482 -2.4107139,1.908482 -1.2723215,0 -2.6450893,-0.669643 -3.5491072,-1.506697 l -1.9084821,2.946429 c 1.5066964,1.506696 3.6495535,2.209821 5.7589285,2.209821 3.4821427,0 6.3616067,-2.075893 6.3616067,-5.758928 z m 0.06696,-20.993304 -3.515625,0 0,2.008929 -4.2522324,0 c 0.1004465,-2.611607 7.3660714,-3.716518 7.3660714,-8.671875 0,-3.314732 -2.678571,-5.15625 -5.7924107,-5.15625 -2.5446428,0 -4.8214285,1.305803 -5.9263392,3.616071 l 2.8459821,1.975447 c 0.5691964,-0.9375 1.5401786,-1.941965 2.7120536,-1.941965 1.1049107,0 1.8080357,0.602679 1.8080357,1.741072 0,2.8125 -7.5669643,3.75 -7.5669643,9.944196 0,0.602679 0.1004464,1.205357 0.2008929,1.808036 l 12.1205359,0 0,-5.323661 z m 47.176339,10.680804 c 0,-0.602679 -0.502232,-1.071429 -1.071429,-1.071429 l -40.714285,0 c -0.602679,0 -1.071429,0.46875 -1.071429,1.071429 l 0,6.428571 c 0,0.569197 0.46875,1.071429 1.071429,1.071429 l 40.714285,0 c 0.569197,0 1.071429,-0.502232 1.071429,-1.071429 l 0,-6.428571 z m -47.142857,-30.100447 -3.616072,0 0,-13.5267854 -3.5491067,0 -4.5535714,4.2522322 2.3772322,2.5446428 C 6.0500908,8.7953622 6.7197336,8.2931301 7.0880372,7.5565229 l 0.066964,0 0,0.4017857 c 0,2.7120534 -0.033482,5.4241074 -0.033482,8.1361604 l -3.5825892,0 0,3.314732 11.2165179,0 0,-3.314732 z m 47.142857,12.95759 c 0,-0.602679 -0.502232,-1.071429 -1.071429,-1.071429 l -40.714285,0 c -0.602679,0 -1.071429,0.46875 -1.071429,1.071429 l 0,6.428571 c 0,0.569196 0.46875,1.071429 1.071429,1.071429 l 40.714285,0 c 0.569197,0 1.071429,-0.502233 1.071429,-1.071429 l 0,-6.428571 z m 0,-17.142858 c 0,-0.569196 -0.502232,-1.071428 -1.071429,-1.071428 l -40.714285,0 c -0.602679,0 -1.071429,0.502232 -1.071429,1.071428 l 0,6.428572 c 0,0.569196 0.46875,1.071428 1.071429,1.071428 l 40.714285,0 c 0.569197,0 1.071429,-0.502232 1.071429,-1.071428 l 0,-6.428572 z" />
  </g>
</svg>
