<?xml version="1.0" encoding="UTF-8" standalone="no"?>
<!-- Created with Inkscape (http://www.inkscape.org/) -->

<svg
   xmlns:dc="http://purl.org/dc/elements/1.1/"
   xmlns:cc="http://creativecommons.org/ns#"
   xmlns:rdf="http://www.w3.org/1999/02/22-rdf-syntax-ns#"
   xmlns:svg="http://www.w3.org/2000/svg"
   xmlns="http://www.w3.org/2000/svg"
   version="1.1"
   width="100%"
   height="100%"
   viewBox="0 0 64 64"
   id="Layer_1">
  <metadata
     id="metadata13">
    <rdf:RDF>
      <cc:Work
         rdf:about="">
        <dc:format>image/svg+xml</dc:format>
        <dc:type
           rdf:resource="http://purl.org/dc/dcmitype/StillImage" />
        <dc:title></dc:title>
      </cc:Work>
    </rdf:RDF>
  </metadata>
  <defs
     id="defs3">
    <style
       id="style5" />
  </defs>
  <path
     d="M 25.216147,22.388564 33.461731,20.854501 43.337256,16.731709 53.404539,10.020187 53.212782,45.591254 46.50126,40.989067 32.311184,35.523971 25.79142,34.373424 z"
     id="path2995"
     style="fill:#ffffff;fill-opacity:1;stroke:none" />
  <g
     id="text2988"
     style="font-size:64px;font-style:normal;font-variant:normal;font-weight:normal;font-stretch:normal;line-height:125%;letter-spacing:0px;word-spacing:0px;fill:#ffae1a;fill-opacity:1;stroke:none;font-family:FontAwesome;-inkscape-font-specification:FontAwesome">
    <path
       d="m 56.068987,24.067158 0,-12.000275 c -0.03,-1.123683 -0.423238,-2.063808 -1.179715,-2.8203782 -0.756578,-0.7564847 -1.696702,-1.149722 -2.820376,-1.1797133 -2.012438,1.7223036 -4.432244,3.5001205 -7.259425,5.3334545 -2.827264,1.833413 -5.987827,3.389002 -9.481699,4.666774 -3.493935,1.277839 -7.247104,1.944521 -11.259517,2.000046 l -15.0003434,0 C 7.6564171,20.103558 6.4793077,20.593151 5.53658,21.535849 4.5938493,22.478608 4.1042555,23.655717 4.0677972,25.067181 l 0,6.000137 c 0.036459,1.41151 0.5260532,2.588619 1.4687828,3.53133 0.9427266,0.942746 2.119836,1.43234 3.5313316,1.468784 l 3.8125874,0 c -0.97399,3.485119 -1.088576,6.694825 -0.343759,9.629127 0.744801,2.934314 1.630237,5.776825 2.656312,8.527539 1.028174,0.891799 2.423266,1.462412 4.18528,1.711843 1.761983,0.249423 3.471897,0.139468 5.129747,-0.329867 1.657809,-0.469342 2.844564,-1.336259 3.560268,-2.600754 -1.750063,-1.273467 -3.093842,-2.601621 -4.031344,-3.984467 -0.937541,-1.38284 -0.90629,-2.960999 0.09375,-4.734482 -1.192104,-1.352887 -1.53456,-2.858129 -1.027369,-4.51573 0.507154,-1.657576 1.703795,-2.85031 3.589928,-3.578206 5.453872,0.602242 10.343302,2.116598 14.668304,4.543072 4.324928,2.426497 7.894016,4.870561 10.707277,7.3322 1.123674,-0.02994 2.063798,-0.423182 2.820376,-1.179715 0.756476,-0.756522 1.149714,-1.696647 1.179715,-2.820376 l 0,-12.000275 c 1.137343,-0.02798 2.081374,-0.417307 2.832095,-1.167996 0.750612,-0.750646 1.139944,-1.694677 1.167997,-2.832096 -0.02805,-1.137372 -0.417383,-2.081403 -1.167996,-2.832097 -0.750719,-0.750641 -1.69475,-1.139972 -2.832093,-1.167994 z M 52.068896,42.94259 C 47.996492,39.818832 43.96906,37.370862 39.986587,35.598671 36.004043,33.826513 32.0313,32.722322 28.068347,32.286096 l 0,-8.437693 c 3.962953,-0.438784 7.935696,-1.553393 11.91824,-3.343828 3.982473,-1.790372 8.009905,-4.248758 12.082309,-7.375168 z"
       id="path2993"
       style="font-size:56px" />
  </g>
</svg>
