<?xml version="1.0" encoding="UTF-8" standalone="no"?>
<!-- Created with Inkscape (http://www.inkscape.org/) -->

<svg
   xmlns:dc="http://purl.org/dc/elements/1.1/"
   xmlns:cc="http://creativecommons.org/ns#"
   xmlns:rdf="http://www.w3.org/1999/02/22-rdf-syntax-ns#"
   xmlns:svg="http://www.w3.org/2000/svg"
   xmlns="http://www.w3.org/2000/svg"
   version="1.1"
   width="100%"
   height="100%"
   viewBox="0 0 64 64"
   id="Layer_1">
  <metadata
     id="metadata13">
    <rdf:RDF>
      <cc:Work
         rdf:about="">
        <dc:format>image/svg+xml</dc:format>
        <dc:type
           rdf:resource="http://purl.org/dc/dcmitype/StillImage" />
        <dc:title></dc:title>
      </cc:Work>
    </rdf:RDF>
  </metadata>
  <defs
     id="defs3">
    <style
       id="style5" />
  </defs>
  <g
     id="text2988"
     style="font-size:64px;font-style:normal;font-variant:normal;font-weight:normal;font-stretch:normal;line-height:125%;letter-spacing:0px;word-spacing:0px;fill:#ffae1a;fill-opacity:1;stroke:none;font-family:FontAwesome;-inkscape-font-specification:FontAwesome" />
  <g
     id="text2995"
     style="font-size:64px;font-style:normal;font-variant:normal;font-weight:normal;font-stretch:normal;line-height:125%;letter-spacing:0px;word-spacing:0px;fill:#ffae1a;fill-opacity:1;stroke:none;font-family:FontAwesome;-inkscape-font-specification:FontAwesome">
    <path
       d="m 12.339167,49.06773 c -0.0065,-0.287764 -0.102876,-0.524748 -0.289071,-0.710954 -0.18621,-0.186199 -0.423194,-0.282555 -0.710952,-0.289069 l -6.0001376,0 c -0.2877676,0.0065 -0.5247521,0.102872 -0.7109542,0.28907 -0.1862026,0.186205 -0.2825587,0.423189 -0.2890687,0.710953 l 0,6.000137 c 0.00651,0.287764 0.1028675,0.524748 0.2890696,0.710954 0.1862015,0.186198 0.4231857,0.282554 0.7109533,0.289069 l 6.0001376,0 c 0.287759,-0.0065 0.524744,-0.102872 0.710953,-0.28907 0.186194,-0.186206 0.282551,-0.42319 0.28907,-0.710953 z m 12.000274,-4.000092 c -0.0065,-0.287759 -0.102887,-0.524744 -0.28907,-0.710954 -0.186222,-0.186194 -0.423206,-0.282551 -0.710953,-0.289068 l -6.000137,0 c -0.28778,0.0065 -0.524764,0.102875 -0.710954,0.289069 -0.186215,0.18621 -0.282571,0.423194 -0.289069,0.710953 l 0,10.000229 c 0.0065,0.287764 0.102856,0.524748 0.28907,0.710954 0.186189,0.186198 0.423173,0.282554 0.710953,0.289069 l 6.000137,0 c 0.287748,-0.0065 0.524732,-0.102872 0.710954,-0.28907 0.186182,-0.186206 0.282538,-0.42319 0.289069,-0.710953 z m 12.000275,-8.000183 c -0.0065,-0.287751 -0.1029,-0.524736 -0.28907,-0.710954 -0.186234,-0.186187 -0.423218,-0.282543 -0.710953,-0.289069 l -6.000137,0 c -0.287792,0.0065 -0.524776,0.102884 -0.710954,0.28907 -0.186227,0.186217 -0.282583,0.423202 -0.289069,0.710953 l 0,18.000412 c 0.0065,0.287764 0.102843,0.524748 0.289069,0.710954 0.186178,0.186198 0.423162,0.282554 0.710954,0.289069 l 6.000137,0 c 0.287736,-0.0065 0.52472,-0.102872 0.710953,-0.28907 0.18617,-0.186206 0.282527,-0.42319 0.28907,-0.710953 z M 48.339991,25.067181 c -0.0066,-0.28774 -0.102912,-0.524725 -0.289071,-0.710955 -0.186246,-0.186174 -0.42323,-0.28253 -0.710952,-0.289068 l -6.000138,0 c -0.287803,0.0065 -0.524788,0.102895 -0.710954,0.289069 -0.186238,0.18623 -0.282595,0.423214 -0.289068,0.710954 l 0,30.000686 c 0.0065,0.287764 0.102831,0.524748 0.289069,0.710954 0.186166,0.186198 0.42315,0.282554 0.710953,0.289069 l 6.000138,0 c 0.287723,-0.0065 0.524708,-0.102872 0.710953,-0.28907 0.186158,-0.186206 0.282515,-0.42319 0.28907,-0.710953 z M 60.340265,9.0668144 C 60.333698,8.7790908 60.237342,8.5421063 60.051195,8.3558602 59.864937,8.1697016 59.627953,8.0733455 59.340242,8.0667915 l -6.000137,0 c -0.287816,0.00656 -0.5248,0.1029115 -0.710954,0.2890696 -0.186251,0.1862455 -0.282607,0.4232297 -0.289069,0.7109533 l 0,46.0010526 c 0.0065,0.287764 0.10282,0.524748 0.28907,0.710954 0.186153,0.186198 0.423137,0.282554 0.710953,0.289069 l 6.000137,0 c 0.287712,-0.0065 0.524696,-0.102872 0.710954,-0.28907 0.186146,-0.186206 0.282502,-0.42319 0.289069,-0.710953 z"
       id="path3000"
       style="font-size:56px" />
  </g>
</svg>
