<?xml version="1.0" encoding="UTF-8" standalone="no"?>
<svg
   xmlns:dc="http://purl.org/dc/elements/1.1/"
   xmlns:cc="http://creativecommons.org/ns#"
   xmlns:rdf="http://www.w3.org/1999/02/22-rdf-syntax-ns#"
   xmlns:svg="http://www.w3.org/2000/svg"
   xmlns="http://www.w3.org/2000/svg"
   version="1.1"
   width="100%"
   height="100%"
   viewBox="0 0 64 64"
   id="Layer_1">
  <metadata
     id="metadata13">
    <rdf:RDF>
      <cc:Work
         rdf:about="">
        <dc:format>image/svg+xml</dc:format>
        <dc:type
           rdf:resource="http://purl.org/dc/dcmitype/StillImage" />
        <dc:title></dc:title>
      </cc:Work>
    </rdf:RDF>
  </metadata>
  <defs
     id="defs3">
    <style
       id="style5" />
  </defs>
  <path
     id="path4159"
     d="m 16.135593,4.7457627 6.508475,0 3.254237,14.3728813 13.423729,0 2.983051,-14.2372881 5.830508,0 3.118644,14.3728811 5.966102,-0.406779 0.813559,40.542373 L 6.5084746,59.79661 6.6440678,21.016949 14.101695,18.576271 Z"
     style="fill:#ffffff;fill-rule:evenodd;stroke:none;stroke-width:1px;stroke-linecap:butt;stroke-linejoin:miter;stroke-opacity:1;fill-opacity:1" />
  <g
     id="text4152"
     style="font-style:normal;font-weight:normal;font-size:50px;line-height:125%;font-family:sans-serif;letter-spacing:0px;word-spacing:0px;fill:#ffae1a;fill-opacity:1;stroke:none;stroke-width:1px;stroke-linecap:butt;stroke-linejoin:miter;stroke-opacity:1">
    <path
       id="path4157"
       style="font-size:60px"
       d="m 41.537644,48.639112 c 0.401785,-0.401786 0.401785,-1.071428 0,-1.506696 l -6.294643,-6.294643 6.294643,-6.294643 c 0.401785,-0.435268 0.401785,-1.104911 0,-1.506696 l -1.540179,-1.540179 c -0.401786,-0.401786 -1.071428,-0.401786 -1.506696,0 l -6.294643,6.294643 -6.294643,-6.294643 c -0.435268,-0.401786 -1.104911,-0.401786 -1.506696,0 l -1.540179,1.540179 c -0.401786,0.401785 -0.401786,1.071428 0,1.506696 l 6.328125,6.294643 -6.328125,6.294643 c -0.401786,0.435268 -0.401786,1.10491 0,1.506696 l 1.540179,1.540179 c 0.401785,0.401785 1.071428,0.401785 1.506696,0 l 6.294643,-6.328125 6.294643,6.328125 c 0.435268,0.401785 1.10491,0.401785 1.506696,0 l 1.540179,-1.540179 z m -32.9129467,9.341518 0,-34.285714 47.1428567,0 0,34.285714 -47.1428567,0 z M 21.48184,17.266344 c 0,0.602679 -0.46875,1.071429 -1.071428,1.071429 l -2.142858,0 c -0.602678,0 -1.071428,-0.46875 -1.071428,-1.071429 l 0,-9.6428568 c 0,-0.6026786 0.46875,-1.0714286 1.071428,-1.0714286 l 2.142858,0 c 0.602678,0 1.071428,0.46875 1.071428,1.0714286 l 0,9.6428568 z m 25.714286,0 c 0,0.602679 -0.46875,1.071429 -1.071429,1.071429 l -2.142857,0 c -0.602678,0 -1.071428,-0.46875 -1.071428,-1.071429 l 0,-9.6428568 c 0,-0.6026786 0.46875,-1.0714286 1.071428,-1.0714286 l 2.142857,0 c 0.602679,0 1.071429,0.46875 1.071429,1.0714286 l 0,9.6428568 z m 12.857143,-2.142857 c 0,-2.34375 -1.941965,-4.285714 -4.285715,-4.285714 l -4.285714,0 0,-3.2142858 c 0,-2.9464286 -2.410714,-5.3571429 -5.357143,-5.3571429 l -2.142857,0 c -2.946428,0 -5.357143,2.4107143 -5.357143,5.3571429 l 0,3.2142858 -12.857143,0 0,-3.2142858 c 0,-2.9464286 -2.410714,-5.3571429 -5.357142,-5.3571429 l -2.142858,0 c -2.946428,0 -5.357142,2.4107143 -5.357142,5.3571429 l 0,3.2142858 -4.2857147,0 c -2.34375,0 -4.2857142,1.941964 -4.2857142,4.285714 l 0,42.857143 c 0,2.34375 1.9419642,4.285714 4.2857142,4.285714 l 47.1428567,0 c 2.34375,0 4.285715,-1.941964 4.285715,-4.285714 l 0,-42.857143 z" />
  </g>
</svg>
