<?xml version="1.0" encoding="UTF-8" standalone="no"?>
<!-- Created with Inkscape (http://www.inkscape.org/) -->

<svg
   xmlns:dc="http://purl.org/dc/elements/1.1/"
   xmlns:cc="http://creativecommons.org/ns#"
   xmlns:rdf="http://www.w3.org/1999/02/22-rdf-syntax-ns#"
   xmlns:svg="http://www.w3.org/2000/svg"
   xmlns="http://www.w3.org/2000/svg"
   version="1.1"
   width="100%"
   height="100%"
   viewBox="0 0 64 64"
   id="Layer_1">
  <metadata
     id="metadata13">
    <rdf:RDF>
      <cc:Work
         rdf:about="">
        <dc:format>image/svg+xml</dc:format>
        <dc:type
           rdf:resource="http://purl.org/dc/dcmitype/StillImage" />
        <dc:title></dc:title>
      </cc:Work>
    </rdf:RDF>
  </metadata>
  <defs
     id="defs3">
    <style
       id="style5" />
  </defs>
  <g
     id="text3792"
     style="font-size:64px;font-style:normal;font-variant:normal;font-weight:normal;font-stretch:normal;line-height:125%;letter-spacing:0px;word-spacing:0px;fill:#ffae1a;fill-opacity:1;stroke:none;font-family:FontAwesome;-inkscape-font-specification:FontAwesome">
    <path
       d="M 59.556464,32.225597 C 59.357744,24.473217 56.674649,18.013254 51.507173,12.845688 46.339602,7.6782065 39.879639,4.9951126 32.127265,4.7963982 28.576564,4.8150502 25.17768,5.4832195 21.930602,6.8009081 18.68349,8.1186933 15.784617,9.9743887 13.233975,12.368 L 8.591012,7.7607517 C 8.2584113,7.4207611 7.8700101,7.2079587 7.425807,7.122344 6.9815985,7.0368252 6.5485532,7.0829573 6.1266699,7.2607403 5.6921355,7.4468027 5.3468895,7.7265704 5.0909309,8.1000443 4.8349716,8.473612 4.7040167,8.8962406 4.6980658,9.3679314 l 0,16.0003666 c 0.017114,0.642157 0.2418213,1.179371 0.6741228,1.611643 0.4323001,0.432329 0.9695141,0.657037 1.6116438,0.674123 l 16.0003666,0 c 0.471718,-0.0059 0.894346,-0.13688 1.267886,-0.392867 0.3735,-0.255931 0.653268,-0.601176 0.839305,-1.035737 0.177809,-0.421856 0.22394,-0.854901 0.138394,-1.299138 -0.08559,-0.444176 -0.298389,-0.832577 -0.638406,-1.165204 l -4.892969,-4.928684 c 1.678593,-1.563244 3.58042,-2.767141 5.705487,-3.611693 2.125026,-0.844472 4.366147,-1.271564 6.723369,-1.281276 5.16824,0.132484 9.474881,1.921214 12.919937,5.366195 3.444975,3.445053 5.233705,7.751694 5.366196,12.919937 -0.13249,5.168291 -1.921219,9.474932 -5.366195,12.919938 -3.445056,3.445025 -7.751698,5.233755 -12.919938,5.366195 -2.866906,-0.01264 -5.544048,-0.630218 -8.031434,-1.852721 -2.487425,-1.22249 -4.619912,-2.974017 -6.397468,-5.254584 -0.09228,-0.124992 -0.211328,-0.223209 -0.357152,-0.294651 -0.145849,-0.07142 -0.300614,-0.116062 -0.464295,-0.133931 -0.333353,1.3e-5 -0.630978,0.107158 -0.892878,0.321436 l -4.892969,4.928685 c -0.197184,0.206856 -0.302841,0.453885 -0.316973,0.741088 -0.01414,0.287215 0.06771,0.552101 0.245543,0.794661 2.649603,3.162277 5.796993,5.596854 9.442179,7.303739 3.645154,1.70688 7.533632,2.569994 11.665447,2.589345 7.752374,-0.19867 14.212337,-2.881765 19.379907,-8.049292 5.167476,-5.16752 7.850571,-11.627483 8.049292,-19.379908 z M 36.698798,21.939648 c -0.0075,-0.328843 -0.117595,-0.599683 -0.330366,-0.812519 -0.212834,-0.212769 -0.483673,-0.32289 -0.812517,-0.330365 l -2.285767,0 c -0.328904,0.0075 -0.599744,0.117597 -0.812519,0.330366 -0.21283,0.212836 -0.322952,0.483675 -0.330364,0.812518 l 0,12.571716 -8.000183,0 c -0.328896,0.0075 -0.599735,0.117583 -0.812519,0.330365 -0.212821,0.212822 -0.322943,0.483662 -0.330364,0.812518 l 0,2.285767 c 0.0074,0.328893 0.117544,0.599732 0.330365,0.812518 0.212783,0.212818 0.483622,0.32294 0.812518,0.330365 l 11.428833,0 c 0.328845,-0.0074 0.599684,-0.117547 0.812518,-0.330366 0.21277,-0.212786 0.322892,-0.483625 0.330365,-0.812517 z"
       id="path3797" />
  </g>
</svg>
