<?xml version="1.0" encoding="UTF-8" standalone="no"?>
<svg
   xmlns:dc="http://purl.org/dc/elements/1.1/"
   xmlns:cc="http://creativecommons.org/ns#"
   xmlns:rdf="http://www.w3.org/1999/02/22-rdf-syntax-ns#"
   xmlns:svg="http://www.w3.org/2000/svg"
   xmlns="http://www.w3.org/2000/svg"
   version="1.1"
   width="100%"
   height="100%"
   viewBox="0 0 64 64"
   id="Layer_1">
  <metadata
     id="metadata13">
    <rdf:RDF>
      <cc:Work
         rdf:about="">
        <dc:format>image/svg+xml</dc:format>
        <dc:type
           rdf:resource="http://purl.org/dc/dcmitype/StillImage" />
        <dc:title></dc:title>
      </cc:Work>
    </rdf:RDF>
  </metadata>
  <defs
     id="defs3">
    <style
       id="style5" />
  </defs>
  <g
     id="text4145"
     style="font-style:normal;font-weight:normal;font-size:50px;line-height:125%;font-family:sans-serif;letter-spacing:0px;word-spacing:0px;fill:#ffae1a;fill-opacity:1;stroke:none;stroke-width:1px;stroke-linecap:butt;stroke-linejoin:miter;stroke-opacity:1">
    <path
       id="path4150"
       style="font-size:60px"
       d="m 42.612591,54.766344 c 0,-0.602678 -0.46875,-1.071428 -1.071429,-1.071428 l -8.571428,0 c -0.602679,0 -1.071429,0.46875 -1.071429,1.071428 l 0,6.428572 c 0,0.602678 0.46875,1.071428 1.071429,1.071428 l 8.571428,0 c 0.602679,0 1.071429,-0.46875 1.071429,-1.071428 l 0,-6.428572 z M 26.541162,50.48063 c 0,-0.602679 -0.46875,-1.071429 -1.071428,-1.071429 l -6.428572,0 0,-46.0714281 c 0,-0.6026786 -0.46875,-1.0714286 -1.071428,-1.0714286 l -6.428572,0 c -0.602678,0 -1.071428,0.46875 -1.071428,1.0714286 l 0,46.0714281 -6.4285716,0 c -0.4352678,0 -0.8370535,0.267858 -1.0044642,0.669643 -0.1674108,0.401786 -0.066964,0.837054 0.234375,1.171875 L 13.985359,61.965005 c 0.234375,0.200893 0.502232,0.301339 0.770089,0.301339 0.267857,0 0.535714,-0.100446 0.770089,-0.301339 L 26.206341,51.284201 c 0.200893,-0.234375 0.334821,-0.502232 0.334821,-0.803571 z m 22.5,-12.857143 c 0,-0.602678 -0.46875,-1.071428 -1.071428,-1.071428 l -15,0 c -0.602679,0 -1.071429,0.46875 -1.071429,1.071428 l 0,6.428572 c 0,0.602678 0.46875,1.071428 1.071429,1.071428 l 15,0 c 0.602678,0 1.071428,-0.46875 1.071428,-1.071428 l 0,-6.428572 z M 55.469734,20.48063 c 0,-0.602679 -0.46875,-1.071429 -1.071429,-1.071429 l -21.428571,0 c -0.602679,0 -1.071429,0.46875 -1.071429,1.071429 l 0,6.428571 c 0,0.602679 0.46875,1.071429 1.071429,1.071429 l 21.428571,0 c 0.602679,0 1.071429,-0.46875 1.071429,-1.071429 l 0,-6.428571 z M 61.898305,3.3377729 c 0,-0.6026786 -0.46875,-1.0714286 -1.071428,-1.0714286 l -27.857143,0 c -0.602679,0 -1.071429,0.46875 -1.071429,1.0714286 l 0,6.4285714 c 0,0.6026787 0.46875,1.0714287 1.071429,1.0714287 l 27.857143,0 c 0.602678,0 1.071428,-0.46875 1.071428,-1.0714287 l 0,-6.4285714 z" />
  </g>
</svg>
