<?xml version="1.0" encoding="UTF-8" standalone="no"?>
<!-- Created with Inkscape (http://www.inkscape.org/) -->

<svg
   xmlns:dc="http://purl.org/dc/elements/1.1/"
   xmlns:cc="http://creativecommons.org/ns#"
   xmlns:rdf="http://www.w3.org/1999/02/22-rdf-syntax-ns#"
   xmlns:svg="http://www.w3.org/2000/svg"
   xmlns="http://www.w3.org/2000/svg"
   version="1.1"
   width="100%"
   height="100%"
   viewBox="0 0 64 64"
   id="Layer_1">
  <metadata
     id="metadata13">
    <rdf:RDF>
      <cc:Work
         rdf:about="">
        <dc:format>image/svg+xml</dc:format>
        <dc:type
           rdf:resource="http://purl.org/dc/dcmitype/StillImage" />
        <dc:title></dc:title>
      </cc:Work>
    </rdf:RDF>
  </metadata>
  <defs
     id="defs3">
    <style
       id="style5" />
  </defs>
  <path
     d="m 13.710681,5.9932742 1.342304,9.7796468 3.068124,7.862068 5.560976,6.328007 3.45164,1.917577 -4.602187,3.739277 -4.122792,7.382674 28.763666,0.958789 -3.259882,-6.615643 -7.190917,-5.465097 7.095038,-5.369217 5.848612,-11.313709 0.09588,-9.1084939 z"
     id="path3790"
     style="fill:#ffffff;fill-opacity:1;stroke:none" />
  <g
     id="text3783"
     style="font-size:64px;font-style:normal;font-variant:normal;font-weight:normal;font-stretch:normal;line-height:125%;letter-spacing:0px;word-spacing:0px;fill:#ffae1a;fill-opacity:1;stroke:none;font-family:FontAwesome;-inkscape-font-specification:FontAwesome">
    <path
       d="m 52.150712,7.9182549 3.000069,0 c 0.287719,-0.00647 0.524704,-0.1028238 0.710953,-0.2890704 0.186154,-0.1861581 0.282511,-0.423142 0.28907,-0.7109525 l 0,-2.0000458 C 56.144245,4.6304665 56.047888,4.3934821 55.861733,4.207232 55.675483,4.0210774 55.438499,3.9247212 55.150781,3.9181633 l -46.0010532,0 C 8.8619602,3.9247223 8.6249757,4.0210788 8.4387736,4.2072328 8.252571,4.3934823 8.1562149,4.6304665 8.1497049,4.9181862 l 0,2.0000458 c 0.00651,0.2878116 0.1028675,0.5247958 0.2890696,0.7109533 0.1862015,0.1862461 0.4231857,0.2826025 0.7109533,0.2890696 l 3.0000682,0 c 0.102863,5.8048581 1.279971,10.7424661 3.53133,14.8128391 2.251345,4.070431 4.959737,7.132998 8.125187,9.18771 -3.165451,2.054753 -5.873844,5.11732 -8.125187,9.18771 -2.251359,4.070413 -3.428467,9.008021 -3.53133,14.812839 l -3.0000682,0 c -0.2877676,0.0065 -0.5247521,0.102864 -0.7109542,0.28907 -0.1862026,0.186198 -0.2825587,0.423182 -0.2890687,0.710953 l 0,2.000046 c 0.00651,0.28776 0.1028675,0.524744 0.2890696,0.710954 0.1862015,0.186194 0.4231857,0.28255 0.7109533,0.289069 l 46.0010532,0 c 0.287719,-0.0065 0.524704,-0.102876 0.710953,-0.28907 0.186154,-0.18621 0.282511,-0.423194 0.28907,-0.710953 l 0,-2.000046 c -0.0066,-0.287771 -0.102916,-0.524756 -0.289071,-0.710954 -0.18625,-0.186206 -0.423234,-0.282563 -0.710952,-0.289069 l -3.000069,0 C 52.047801,50.114535 50.870691,45.176927 48.61938,41.106514 c -2.251392,-4.07039 -4.959784,-7.132957 -8.125185,-9.18771 3.165401,-2.054712 5.873793,-5.117279 8.125185,-9.18771 2.25131,-4.070373 3.42842,-9.007981 3.531332,-14.8128391 z M 35.46283,30.043761 c -0.39652,0.148463 -0.712933,0.390656 -0.949241,0.72658 -0.23636,0.335966 -0.357456,0.718786 -0.363289,1.148463 0.0058,0.429717 0.126931,0.812538 0.363289,1.148464 0.236307,0.335963 0.55272,0.578156 0.949241,0.726579 1.35482,0.505238 2.684276,1.276089 3.988372,2.312553 1.304034,1.036496 2.5163,2.307357 3.636803,3.812587 l -21.875501,0 c 1.120454,-1.505229 2.33272,-2.77609 3.636802,-3.812587 1.304048,-1.036465 2.633505,-1.807316 3.988372,-2.312553 0.396474,-0.148423 0.712887,-0.390616 0.949241,-0.72658 0.236311,-0.335927 0.357407,-0.718747 0.363289,-1.148463 -0.0059,-0.429677 -0.126977,-0.812498 -0.363289,-1.148464 -0.236355,-0.335924 -0.552768,-0.578117 -0.949241,-0.726579 -3.290457,-1.248053 -6.194167,-3.806702 -8.711137,-7.675956 -2.516994,-3.869196 -3.842544,-8.685707 -3.976653,-14.4495501 l 32.000732,0 C 48.016462,13.682097 46.690912,18.498608 44.173966,22.367805 41.656948,26.23706 38.753239,28.79571 35.46283,30.043761 z"
       id="path3788"
       style="font-size:56px" />
  </g>
</svg>
