<?xml version="1.0" encoding="UTF-8" standalone="no"?>
<svg
   xmlns:dc="http://purl.org/dc/elements/1.1/"
   xmlns:cc="http://creativecommons.org/ns#"
   xmlns:rdf="http://www.w3.org/1999/02/22-rdf-syntax-ns#"
   xmlns:svg="http://www.w3.org/2000/svg"
   xmlns="http://www.w3.org/2000/svg"
   id="Layer_1"
   viewBox="0 0 64 64"
   height="100%"
   width="100%"
   version="1.1">
  <metadata
     id="metadata13">
    <rdf:RDF>
      <cc:Work
         rdf:about="">
        <dc:format>image/svg+xml</dc:format>
        <dc:type
           rdf:resource="http://purl.org/dc/dcmitype/StillImage" />
        <dc:title></dc:title>
      </cc:Work>
    </rdf:RDF>
  </metadata>
  <defs
     id="defs3">
    <style
       id="style5" />
  </defs>
  <path
     id="path4168"
     d="M 25.191406 1.7734375 C 18.448102 1.7734375 12.978516 7.2430255 12.978516 13.986328 C 12.978516 20.729631 18.448102 26.201172 25.191406 26.201172 C 31.93471 26.201172 37.40625 20.729631 37.40625 13.986328 C 37.40625 7.2430255 31.93471 1.7734375 25.191406 1.7734375 z M 15.236328 24.166016 C 6.902623 24.166016 4.8339844 33.835659 4.8339844 42.201172 C 4.8339844 46.845145 7.8878345 50.630859 11.609375 50.630859 L 24.878906 50.630859 L 24.878906 40 C 24.878906 37.558644 26.892629 35.544922 29.333984 35.544922 L 45.035156 35.544922 C 44.021877 29.427795 41.292849 24.166016 35.146484 24.166016 C 32.570034 26.678851 29.071986 28.236328 25.191406 28.236328 C 21.310826 28.236328 17.812779 26.678851 15.236328 24.166016 z "
     style="font-style:normal;font-variant:normal;font-weight:normal;font-stretch:normal;font-size:60px;line-height:125%;font-family:FontAwesome;-inkscape-font-specification:FontAwesome;letter-spacing:0px;word-spacing:0px;fill:#ffae1a;fill-opacity:1;stroke:none;stroke-width:1px;stroke-linecap:butt;stroke-linejoin:miter;stroke-opacity:1" />
  <rect
     y="38.687973"
     x="28.092514"
     height="16.970562"
     width="27.133724"
     id="rect4221"
     style="fill:#ffffff;fill-opacity:1;stroke:none;stroke-width:4;stroke-linecap:round;stroke-linejoin:round;stroke-miterlimit:4;stroke-dasharray:none;stroke-opacity:1" />
  <g
     id="text4187"
     style="font-style:normal;font-weight:normal;font-size:50px;line-height:125%;font-family:sans-serif;letter-spacing:0px;word-spacing:0px;fill:#ffae1a;fill-opacity:1;stroke:none;stroke-width:1px;stroke-linecap:butt;stroke-linejoin:miter;stroke-opacity:1">
    <path
       id="path4219"
       style="font-size:27.5px"
       d="m 54.379293,54.732312 c 0,0.260881 -0.230189,0.491071 -0.491071,0.491071 l -24.553571,0 c -0.260882,0 -0.491072,-0.23019 -0.491072,-0.491071 l 0,-14.732143 c 0,-0.260882 0.23019,-0.491071 0.491072,-0.491071 l 24.553571,0 c 0.260882,0 0.491071,0.230189 0.491071,0.491071 l 0,14.732143 z m 1.964286,-14.732143 c 0,-1.350446 -1.104911,-2.455357 -2.455357,-2.455357 l -24.553571,0 c -1.350447,0 -2.455358,1.104911 -2.455358,2.455357 l 0,14.732143 c 0,1.350446 1.104911,2.455357 2.455358,2.455357 l 11.294642,0 0,1.964286 -5.401785,0 c -0.276228,0 -0.491072,0.214843 -0.491072,0.491071 l 0,0.982143 c 0,0.276228 0.214844,0.491071 0.491072,0.491071 l 12.767857,0 c 0.276228,0 0.491071,-0.214843 0.491071,-0.491071 l 0,-0.982143 c 0,-0.276228 -0.214843,-0.491071 -0.491071,-0.491071 l -5.401786,0 0,-1.964286 11.294643,0 c 1.350446,0 2.455357,-1.104911 2.455357,-2.455357 l 0,-14.732143 z" />
  </g>
  <g
     id="text4223"
     style="font-style:normal;font-weight:normal;font-size:50px;line-height:125%;font-family:sans-serif;letter-spacing:0px;word-spacing:0px;fill:#ffae1a;fill-opacity:1;stroke:none;stroke-width:1px;stroke-linecap:butt;stroke-linejoin:miter;stroke-opacity:1">
    <path
       id="path4228"
       style="font-size:17.5px"
       d="m 49.300697,43.980663 c 0,-0.24414 -0.09766,-0.488281 -0.273437,-0.664062 l -1.328125,-1.328125 c -0.175781,-0.175781 -0.419922,-0.273438 -0.664063,-0.273438 -0.24414,0 -0.488281,0.09766 -0.664062,0.273438 l -6.40625,6.416015 -2.871094,-2.880859 c -0.175781,-0.175781 -0.419922,-0.273437 -0.664062,-0.273437 -0.244141,0 -0.488282,0.09766 -0.664063,0.273437 l -1.328125,1.328125 c -0.175781,0.175781 -0.273437,0.419922 -0.273437,0.664063 0,0.24414 0.09766,0.488281 0.273437,0.664062 l 3.535156,3.535156 1.328125,1.328125 c 0.175782,0.175782 0.419922,0.273438 0.664063,0.273438 0.24414,0 0.488281,-0.09766 0.664062,-0.273438 l 1.328125,-1.328125 7.070313,-7.070312 c 0.175781,-0.175781 0.273437,-0.419922 0.273437,-0.664063 z" />
  </g>
</svg>
