<?xml version="1.0" encoding="UTF-8" standalone="no"?>
<svg
   xmlns:dc="http://purl.org/dc/elements/1.1/"
   xmlns:cc="http://creativecommons.org/ns#"
   xmlns:rdf="http://www.w3.org/1999/02/22-rdf-syntax-ns#"
   xmlns:svg="http://www.w3.org/2000/svg"
   xmlns="http://www.w3.org/2000/svg"
   height="100%"
   width="100%"
   version="1.1"
   viewBox="0 0 64 64"
   data-name="Layer 1"
   id="Layer_1">
  <metadata
     id="metadata13">
    <rdf:RDF>
      <cc:Work
         rdf:about="">
        <dc:format>image/svg+xml</dc:format>
        <dc:type
           rdf:resource="http://purl.org/dc/dcmitype/StillImage" />
        <dc:title></dc:title>
      </cc:Work>
    </rdf:RDF>
  </metadata>
  <defs
     id="defs3">
    <style
       id="style5">.cls-1{fill:#6d51aa;}.cls-2{fill:#fff;}</style>
  </defs>
  <g
     id="text4157"
     style="font-style:normal;font-weight:normal;font-size:80px;line-height:125%;font-family:sans-serif;letter-spacing:0px;word-spacing:0px;fill:#ffae1a;fill-opacity:1;stroke:none;stroke-width:1px;stroke-linecap:butt;stroke-linejoin:miter;stroke-opacity:1" />
  <g
     id="text4164"
     style="font-style:normal;font-weight:normal;font-size:80px;line-height:125%;font-family:sans-serif;letter-spacing:0px;word-spacing:0px;fill:#ffae1a;fill-opacity:1;stroke:none;stroke-width:1px;stroke-linecap:butt;stroke-linejoin:miter;stroke-opacity:1">
    <path
       id="path4169"
       style="font-size:52.5px"
       d="m 62.169492,52.338982 -56.2500005,0 0,-41.25 -3.75,0 0,45 60.0000005,0 0,-3.75 z m -3.75,-36.5625 c 0,-0.527344 -0.410157,-0.9375 -0.9375,-0.9375 l -12.744141,0 c -0.820313,0 -1.259766,0.996093 -0.644531,1.611328 l 3.544922,3.544922 -13.59375,13.59375 -6.826172,-6.826172 c -0.38086,-0.38086 -0.966797,-0.38086 -1.347657,0 l -17.1386715,17.138672 5.6250005,5.625 12.1875,-12.1875 6.826171,6.826172 c 0.38086,0.380859 0.966797,0.380859 1.347657,0 l 18.544922,-18.544922 3.544921,3.544922 c 0.615235,0.615234 1.611329,0.175781 1.611329,-0.644532 l 0,-12.74414 z" />
  </g>
</svg>
