<?xml version="1.0" encoding="UTF-8" standalone="no"?>
<!-- Created with Inkscape (http://www.inkscape.org/) -->

<svg
   xmlns:dc="http://purl.org/dc/elements/1.1/"
   xmlns:cc="http://creativecommons.org/ns#"
   xmlns:rdf="http://www.w3.org/1999/02/22-rdf-syntax-ns#"
   xmlns:svg="http://www.w3.org/2000/svg"
   xmlns="http://www.w3.org/2000/svg"
   version="1.1"
   width="100%"
   height="100%"
   viewBox="0 0 64 64"
   id="Layer_1">
  <metadata
     id="metadata13">
    <rdf:RDF>
      <cc:Work
         rdf:about="">
        <dc:format>image/svg+xml</dc:format>
        <dc:type
           rdf:resource="http://purl.org/dc/dcmitype/StillImage" />
        <dc:title></dc:title>
      </cc:Work>
    </rdf:RDF>
  </metadata>
  <defs
     id="defs3">
    <style
       id="style5" />
  </defs>
  <path
     d="M 15.244743,19.22456 4.1227921,39.550884 26.558451,39.742642 z"
     id="path2993"
     style="fill:#ffffff;fill-opacity:1;stroke:none" />
  <path
     d="M 49.668729,19.27609 38.546778,39.602414 60.982437,39.794172 z"
     id="path2993-1"
     style="fill:#ffffff;fill-opacity:1;stroke:none" />
  <path
     d="m 35.858702,13.040372 a 3.4037004,3.4995794 0 1 1 -5e-5,-0.01908"
     id="path3781"
     style="fill:#ffffff;fill-opacity:1;fill-rule:evenodd;stroke:none" />
  <g
     id="text2986"
     style="font-size:64px;font-style:normal;font-variant:normal;font-weight:normal;font-stretch:normal;line-height:125%;letter-spacing:0px;word-spacing:0px;fill:#ffae1a;fill-opacity:1;stroke:none;font-family:FontAwesome;-inkscape-font-specification:FontAwesome">
    <path
       d="m 49.541011,20.21241 10.28595,18.857574 -20.5719,0 z m -34.286499,0 10.28595,18.857574 -20.5718999,0 z m 21.991575,-5.142975 13.152086,0 c 0.24661,-0.0055 0.44974,-0.08814 0.609389,-0.247774 0.159554,-0.159568 0.242145,-0.362697 0.247774,-0.609388 l 0,-1.714325 c -0.0056,-0.246621 -0.08822,-0.44975 -0.247775,-0.60939 -0.15965,-0.159564 -0.362779,-0.242155 -0.609388,-0.247773 l -13.152086,0 C 36.868253,10.619036 36.251052,9.7964732 35.39448,9.1730936 34.537845,8.5497942 33.53894,8.2294751 32.397761,8.2121353 31.256524,8.2294761 30.257618,8.5497959 29.40104,9.1730957 28.54441,9.7964759 27.927209,10.619038 27.549436,11.640785 l -13.152087,0 c -0.246668,0.0056 -0.449797,0.08821 -0.609389,0.247774 -0.159612,0.159639 -0.242203,0.362768 -0.247773,0.609389 l 0,1.714325 c 0.0056,0.246692 0.08816,0.449821 0.247774,0.609388 0.159591,0.159636 0.36272,0.242228 0.609388,0.247774 l 13.152087,0 c 0.262816,0.731635 0.667958,1.371158 1.215429,1.918571 0.54742,0.547477 1.186943,0.95262 1.918571,1.215429 l 0,34.581149 -16.286087,0 c -0.246668,0.0056 -0.449797,0.08817 -0.609389,0.247774 -0.159612,0.159598 -0.242203,0.362727 -0.247773,0.609389 l 0,1.714324 c 0.0056,0.246652 0.08816,0.449781 0.247774,0.609389 0.159591,0.159595 0.36272,0.242186 0.609388,0.247774 l 36.000824,0 c 0.24661,-0.0056 0.44974,-0.08818 0.609389,-0.247775 0.159554,-0.159608 0.242145,-0.362737 0.247774,-0.609388 l 0,-1.714324 c -0.0056,-0.246662 -0.08822,-0.449791 -0.247775,-0.60939 -0.15965,-0.159605 -0.362779,-0.242196 -0.609388,-0.247773 l -16.286087,0 0,-34.581149 c 0.73157,-0.262809 1.371093,-0.667952 1.918571,-1.215429 0.547412,-0.547413 0.952555,-1.186936 1.21543,-1.918571 z m -4.848326,0.428581 c -0.604953,-0.01559 -1.109429,-0.225417 -1.513429,-0.629478 -0.404054,-0.403993 -0.61388,-0.908468 -0.629477,-1.513428 0.0156,-0.604888 0.225425,-1.109364 0.62948,-1.513429 0.403999,-0.403989 0.908474,-0.613815 1.513426,-0.629477 0.604895,0.01566 1.10937,0.22549 1.513427,0.629479 0.403996,0.404064 0.613822,0.90854 0.62948,1.513427 -0.01566,0.60496 -0.225483,1.109435 -0.629479,1.513427 -0.404058,0.404061 -0.908533,0.613887 -1.513428,0.629479 z m 29.143525,23.571968 0,0 c -0.04575,-0.339213 -0.538645,-1.413595 -1.47869,-3.223149 -0.940159,-1.809526 -2.053325,-3.885884 -3.339503,-6.229077 -1.286284,-2.343155 -2.471439,-4.484803 -3.555466,-6.424952 -1.084127,-1.940096 -1.792987,-3.210352 -2.126582,-3.810772 -0.152953,-0.271183 -0.362779,-0.485473 -0.629479,-0.642873 -0.266793,-0.157339 -0.556978,-0.237698 -0.870555,-0.241076 -0.31367,0.0034 -0.603856,0.08374 -0.870557,0.241076 -0.266792,0.1574 -0.476618,0.37169 -0.629477,0.642873 -0.333689,0.600419 -1.042549,1.870675 -2.126585,3.810773 -1.08412,1.94015 -2.269274,4.081799 -3.555466,6.424953 -1.286271,2.343193 -2.399437,4.41955 -3.339502,6.229076 -0.940137,1.809553 -1.433033,2.883935 -1.478688,3.223148 l 0,0 c 0.06726,1.832391 0.780901,3.31655 2.140921,4.452482 1.359946,1.135943 2.962495,1.965326 4.80765,2.488152 1.845073,0.522832 3.528972,0.780775 5.051704,0.773829 1.522638,0.0069 3.206537,-0.250994 5.051702,-0.773828 1.845062,-0.522826 3.44761,-1.35221 4.80765,-2.488153 1.359927,-1.135931 2.073567,-2.62009 2.140923,-4.452482 z m -34.2865,0 c -0.04571,-0.339213 -0.53861,-1.413595 -1.478689,-3.223149 -0.940124,-1.809526 -2.053291,-3.885884 -3.339503,-6.229077 -1.28625,-2.343155 -2.471404,-4.484803 -3.555466,-6.424952 -1.084093,-1.940096 -1.792953,-3.210352 -2.126582,-3.810772 -0.152919,-0.271183 -0.362745,-0.485473 -0.629479,-0.642873 -0.266759,-0.157339 -0.556944,-0.237698 -0.870555,-0.241076 -0.313636,0.0034 -0.603822,0.08374 -0.870557,0.241076 -0.266758,0.1574 -0.476584,0.37169 -0.629477,0.642873 -0.333655,0.600419 -1.042515,1.870675 -2.126585,3.810773 -1.084086,1.94015 -2.2692401,4.081799 -3.5554664,6.424953 -1.286236,2.343193 -2.3994022,4.41955 -3.3395019,6.229076 -0.9401026,1.809553 -1.432998,2.883935 -1.4786875,3.223148 l 0,0 c 0.067296,1.832391 0.7809354,3.31655 2.1409206,4.452482 1.3599809,1.135943 2.9625293,1.965326 4.8076502,2.488152 1.845107,0.522832 3.529006,0.780775 5.051704,0.773829 1.522672,0.0069 3.206571,-0.250994 5.051702,-0.773828 1.845096,-0.522826 3.447644,-1.35221 4.80765,-2.488153 1.359961,-1.135931 2.073602,-2.62009 2.140922,-4.452482 z"
       id="path2991"
       style="font-size:48px" />
  </g>
</svg>
