<?xml version="1.0" encoding="UTF-8" standalone="no"?>
<!-- Created with Inkscape (http://www.inkscape.org/) -->

<svg
   xmlns:dc="http://purl.org/dc/elements/1.1/"
   xmlns:cc="http://creativecommons.org/ns#"
   xmlns:rdf="http://www.w3.org/1999/02/22-rdf-syntax-ns#"
   xmlns:svg="http://www.w3.org/2000/svg"
   xmlns="http://www.w3.org/2000/svg"
   version="1.1"
   width="100%"
   height="100%"
   viewBox="0 0 64 64"
   id="Layer_1">
  <metadata
     id="metadata13">
    <rdf:RDF>
      <cc:Work
         rdf:about="">
        <dc:format>image/svg+xml</dc:format>
        <dc:type
           rdf:resource="http://purl.org/dc/dcmitype/StillImage" />
        <dc:title></dc:title>
      </cc:Work>
    </rdf:RDF>
  </metadata>
  <defs
     id="defs3">
    <style
       id="style5" />
  </defs>
  <g
     id="text2988"
     style="font-size:64px;font-style:normal;font-variant:normal;font-weight:normal;font-stretch:normal;line-height:125%;letter-spacing:0px;word-spacing:0px;fill:#ffae1a;fill-opacity:1;stroke:none;font-family:FontAwesome;-inkscape-font-specification:FontAwesome" />
  <rect
     width="56.677967"
     height="37.694916"
     x="4.0677967"
     y="13.830508"
     id="rect3009"
     style="fill:#ffffff;fill-opacity:1;fill-rule:evenodd;stroke:none" />
  <g
     id="text3002"
     style="font-size:64px;font-style:normal;font-variant:normal;font-weight:normal;font-stretch:normal;line-height:125%;letter-spacing:0px;word-spacing:0px;fill:#ffae1a;fill-opacity:1;stroke:none;font-family:FontAwesome;-inkscape-font-specification:FontAwesome">
    <path
       d="m 26.170041,40.881081 0,-3.000069 4.000091,0 0,-9.000206 -0.0625,0 c -0.243524,0.375032 -0.498738,0.687539 -0.765644,0.937521 -0.266961,0.250029 -0.584676,0.531285 -0.953145,0.84377 l -2.406305,-2.500057 4.625105,-4.281348 3.562582,0 0,14.00032 4.000092,0 0,3.000069 z m 16.000366,-8.000183 c -0.002,-1.951027 -0.380063,-3.917119 -1.134285,-5.898284 -0.7543,-1.981113 -1.873152,-3.646273 -3.356559,-4.995486 -1.483478,-1.34915 -3.319938,-2.051326 -5.509385,-2.106528 -2.189507,0.0552 -4.025967,0.75738 -5.509385,2.10653 -1.483467,1.349212 -2.602319,3.014372 -3.356559,4.995485 -0.754282,1.981165 -1.132377,3.947257 -1.134285,5.898283 0.0019,1.951065 0.380004,3.917157 1.134286,5.898282 0.754239,1.981153 1.873091,3.646313 3.356558,4.995485 1.483418,1.34919 3.319878,2.051366 5.509385,2.10653 2.189447,-0.05516 4.025907,-0.757339 5.509385,-2.10653 1.483407,-1.349173 2.602259,-3.014333 3.356558,-4.995485 0.754222,-1.981124 1.132317,-3.947216 1.134286,-5.898282 z m 16.000366,8.000183 c -2.261173,0.05796 -4.145329,0.840525 -5.652473,2.34771 -1.507245,1.507205 -2.289814,3.39136 -2.34771,5.652473 l -36.000824,0 C 14.11181,46.62015 13.329241,44.735994 11.822056,43.22879 10.314853,41.721606 8.4306967,40.939037 6.1695831,40.881081 l 0,-16.000367 c 2.2611125,-0.05792 4.1452679,-0.840485 5.6524729,-2.347709 1.507185,-1.507164 2.289754,-3.39132 2.34771,-5.652474 l 36.000824,0 c 0.0579,2.261153 0.840466,4.145308 2.347711,5.652473 1.507144,1.507225 3.3913,2.289794 5.652472,2.34771 l 0,16.000367 z M 62.170865,14.880486 C 62.15583,14.318662 61.959211,13.8486 61.581007,13.470296 61.202683,13.092072 60.732621,12.895453 60.170819,12.88044 l -56.0012817,0 c -0.5618634,0.01501 -1.031926,0.211633 -1.4101891,0.589857 -0.3782644,0.378303 -0.574883,0.848365 -0.5898567,1.410189 l 0,36.000824 c 0.014975,0.561863 0.2115937,1.031925 0.5898575,1.410188 0.3782626,0.378264 0.8483249,0.574883 1.4101883,0.589857 l 56.0012817,0 c 0.561803,-0.01497 1.031866,-0.211594 1.410188,-0.589858 0.378204,-0.378263 0.574823,-0.848325 0.589858,-1.410187 z"
       id="path3007"
       style="font-size:56px" />
  </g>
</svg>
