<svg id="Layer_1" data-name="Layer 1" xmlns="http://www.w3.org/2000/svg" viewBox="0 0 64 64"><defs><style>.cls-1{fill:#6d51aa;}.cls-2{fill:#fff;}</style></defs><title>bar</title>
  <g
     id="text3758"
     style="font-size:64px;font-style:normal;font-variant:normal;font-weight:normal;font-stretch:normal;line-height:125%;letter-spacing:0px;word-spacing:0px;fill:#6d51aa;fill-opacity:1;stroke:none;font-family:FontAwesome;-inkscape-font-specification:FontAwesome">
    <path
       d="m 52.785681,34.348133 c -0.0193,0.722416 -0.2721,1.326782 -0.758389,1.813099 -0.48639,0.48636 -1.090755,0.739156 -1.813098,0.758389 l -20.170105,0 7.593924,7.593923 c 0.482116,0.502257 0.723193,1.104949 0.723231,1.808077 -3.8e-5,0.70315 -0.241115,1.305842 -0.723231,1.808078 l -3.656333,3.656333 c -0.502277,0.482159 -1.104968,0.723236 -1.808078,0.723231 -0.703172,5e-6 -1.305864,-0.241072 -1.808077,-0.723231 L 15.82055,37.241056 12.164216,33.584723 c -0.482166,-0.50222 -0.723242,-1.104912 -0.723231,-1.808077 -1.1e-5,-0.703116 0.241065,-1.305808 0.723231,-1.808077 L 15.82055,26.312235 30.365525,11.767259 c 0.502215,-0.482108 1.104907,-0.723184 1.808077,-0.723231 0.703108,4.7e-5 1.3058,0.241123 1.808078,0.723231 l 3.656333,3.656334 c 0.49551,0.502285 0.74998,1.104977 0.763411,1.808077 -0.01343,0.703179 -0.267901,1.305871 -0.763411,1.808077 l -7.593924,7.593924 20.170105,0 c 0.722344,0.01928 1.32671,0.27208 1.813099,0.758388 0.486288,0.486368 0.739084,1.090734 0.758388,1.813099 l 0,5.142975 z m 10.28595,-2.571487 C 62.850583,23.037641 59.837124,15.76516 54.031245,9.959181 48.22526,4.1532968 40.95278,1.1398383 32.213782,0.91879654 23.474721,1.1398397 16.20224,4.1532982 10.396317,9.959181 4.5903765,15.765159 1.576918,23.03764 1.3559328,31.776646 c 0.2209867,8.739056 3.2344451,16.011536 9.0403842,21.817462 5.805921,5.805934 13.078402,8.819394 21.817465,9.040387 8.738999,-0.220992 16.01148,-3.234451 21.817463,-9.040387 5.805877,-5.805928 8.819336,-13.078408 9.040386,-21.817462 z"
       id="path3763"
       style="font-size:72px;fill:#6d51aa" />
  </g>
</svg>
