<?xml version="1.0" encoding="UTF-8" standalone="no"?>
<!-- Created with Inkscape (http://www.inkscape.org/) -->

<svg
   xmlns:dc="http://purl.org/dc/elements/1.1/"
   xmlns:cc="http://creativecommons.org/ns#"
   xmlns:rdf="http://www.w3.org/1999/02/22-rdf-syntax-ns#"
   xmlns:svg="http://www.w3.org/2000/svg"
   xmlns="http://www.w3.org/2000/svg"
   version="1.1"
   width="100%"
   height="100%"
   viewBox="0 0 64 64"
   id="Layer_1">
  <metadata
     id="metadata13">
    <rdf:RDF>
      <cc:Work
         rdf:about="">
        <dc:format>image/svg+xml</dc:format>
        <dc:type
           rdf:resource="http://purl.org/dc/dcmitype/StillImage" />
        <dc:title></dc:title>
      </cc:Work>
    </rdf:RDF>
  </metadata>
  <defs
     id="defs3">
    <style
       id="style5" />
  </defs>
  <g
     id="text3765"
     style="font-size:64px;font-style:normal;font-variant:normal;font-weight:normal;font-stretch:normal;line-height:125%;letter-spacing:0px;word-spacing:0px;fill:#ffae1a;fill-opacity:1;stroke:none;font-family:FontAwesome;-inkscape-font-specification:FontAwesome">
    <path
       d="m 26.980458,51.750492 c -0.03946,-0.625755 -0.308809,-0.981418 -0.808055,-1.06699 -0.49929,-0.08556 -0.99186,-0.11086 -1.477712,-0.07589 l -10.28595,0 C 12.7956,50.565945 11.450332,50.006409 10.372934,48.928998 9.2955228,47.851599 8.735987,46.506332 8.694325,44.893192 l 0,-25.143432 c 0.041663,-1.613096 0.601199,-2.958364 1.678609,-4.035808 1.077397,-1.077365 2.422665,-1.636901 4.035807,-1.678609 l 11.428833,0 c 0.750738,-0.08032 1.142116,-0.526756 1.174134,-1.339316 0.03197,-0.812475 0.02156,-1.508919 -0.03125,-2.089334 C 26.970762,10.293487 26.856176,10.027112 26.6367,9.8075676 26.417179,9.5881142 26.150804,9.4735285 25.837574,9.46381 l -11.428833,0 c -2.91302,0.073709 -5.3371808,1.078195 -7.2724881,3.013462 -1.9353134,1.935352 -2.9397994,4.359513 -3.0134611,7.272488 l 0,25.143432 c 0.073663,2.913021 1.0781493,5.337181 3.013462,7.272488 1.9353067,1.935313 4.3594672,2.939799 7.2724872,3.013462 l 11.428833,0 c 0.750738,-0.08036 1.142116,-0.526797 1.174134,-1.339316 0.03197,-0.812517 0.02156,-1.50896 -0.03125,-2.089334 z M 60.124074,32.321476 c -0.01196,-0.624992 -0.238158,-1.160718 -0.678587,-1.60718 L 40.01647,11.28528 c -0.446474,-0.440442 -0.9822,-0.666638 -1.607179,-0.678587 -0.642162,0.01716 -1.179376,0.241866 -1.611645,0.674123 -0.432334,0.432345 -0.657041,0.969559 -0.674122,1.611644 l 0,10.28595 -16.000366,0 c -0.642143,0.01715 -1.179358,0.241853 -1.611645,0.674122 -0.432316,0.432332 -0.657023,0.969547 -0.674122,1.611644 l 0,13.7146 c 0.0171,0.642143 0.241808,1.179357 0.674123,1.611644 0.432287,0.432315 0.969501,0.657022 1.611644,0.674122 l 16.000366,0 0,10.28595 c 0.01708,0.642131 0.24179,1.179345 0.674123,1.611644 0.432268,0.432302 0.969482,0.65701 1.611644,0.674123 0.624978,-0.0119 1.160704,-0.2381 1.607179,-0.678587 L 59.445487,33.928656 c 0.440429,-0.446418 0.666625,-0.982144 0.678587,-1.60718 z"
       id="path3770" />
  </g>
</svg>
