<svg id="Layer_1" data-name="Layer 1" xmlns="http://www.w3.org/2000/svg" viewBox="0 0 170 64"><defs><style>.cls-1{fill:#6d51aa;}.cls-2{fill:#fff;}</style></defs><title>auto</title>
<g
     id="layer1"
     style="opacity:0.95999995">
    <path
       d="m 156.34245,6.6359825 c -5.49364,0.052174 -9.9375,4.5253265 -9.9375,10.0312505 -0.0416,6.146691 4.12205,12.564939 8.75,16.90625 0.34017,0.319102 0.81483,0.569186 1.2812,0.5625 0.43795,-0.0063 0.87238,-0.258292 1.1875,-0.5625 4.56524,-4.407206 8.79162,-10.759559 8.75,-16.90625 0,-5.506905 -4.44251,-9.9806416 -9.9375,-10.0312505 -0.0314,-2.889e-4 -0.0623,0 -0.0937,0 z m 0,5.5000005 c 0.032,0 0.0619,-6.61e-4 0.0937,0 2.45865,0.05099 4.4375,2.060366 4.4375,4.53125 0,2.470884 -1.97885,4.480263 -4.4375,4.53125 -0.032,0 -0.0619,6.61e-4 -0.0937,0 -2.45865,-0.05099 -4.4375,-2.060366 -4.4375,-4.53125 0,-2.470884 1.97885,-4.480263 4.4375,-4.53125 z"
       id="path3778"
       style="fill:#ffffff;fill-opacity:1;fill-rule:evenodd;stroke:none" />
    <g
       id="text3816"
       style="font-size:8px;font-style:normal;font-variant:normal;font-weight:bold;font-stretch:normal;line-height:125%;letter-spacing:0px;word-spacing:0px;fill:#ffffff;fill-opacity:1;stroke:none;font-family:'18VAG Rounded M';-inkscape-font-specification:'18VAG Rounded M Bold'">
      <path
         d="m 5.6757741,32.019531 0,-14.586914 c -1.2e-6,-0.600894 0.1904283,-1.074852 0.5712891,-1.421875 0.3808572,-0.346987 0.8759739,-0.520489 1.4853515,-0.520508 l 4.9892583,0 c 2.166656,1.9e-5 3.664701,0.892922 4.49414,2.678711 0.262357,0.567073 0.393542,1.197606 0.393555,1.891602 -1.3e-5,1.785819 -0.804049,3.059581 -2.41211,3.821289 l 0,0.05078 c 1.142567,0.177744 2.086251,0.672861 2.831055,1.485352 0.744778,0.812508 1.117173,1.794277 1.117188,2.945312 -1.5e-5,1.802738 -0.56284,3.203453 -1.688477,4.202149 C 16.390606,33.52181 14.943342,34 13.115227,34 L 7.7578053,34 C 7.1568912,34 6.6596587,33.818034 6.2661061,33.454102 5.8725501,33.09017 5.6757729,32.611981 5.6757741,32.019531 z m 3.8974609,-13.101562 0,3.897461 2.03125,0 c 0.643221,1.1e-5 1.155265,-0.181955 1.536133,-0.545899 0.38085,-0.36392 0.57128,-0.863268 0.571289,-1.498047 -9e-6,-1.235662 -0.702483,-1.8535 -2.107422,-1.853515 z m 0,7.33789 0,4.316407 3.072266,0 c 0.727855,3e-6 1.318187,-0.19889 1.770996,-0.59668 0.452789,-0.397782 0.679188,-0.956375 0.679199,-1.675781 -1.1e-5,-1.362623 -0.922536,-2.043938 -2.767578,-2.043946 z"
         id="path3761"
         style="font-size:26px;fill:#ffffff" />
      <path
         d="m 19.666008,31.473633 5.230469,-14.142578 c 0.533197,-1.438784 1.459954,-2.158185 2.780274,-2.158203 1.33723,1.8e-5 2.263987,0.719419 2.780273,2.158203 l 5.103516,14.142578 c 0.1354,0.372398 0.203108,0.694012 0.203125,0.964844 -1.7e-5,0.49935 -0.177751,0.909831 -0.533203,1.231445 -0.355485,0.321614 -0.774429,0.482422 -1.256836,0.482422 -0.981785,0 -1.61655,-0.448568 -1.904297,-1.345703 l -0.774414,-2.450196 -7.223633,0 -0.787109,2.424805 c -0.296228,0.914063 -0.918298,1.371094 -1.866211,1.371094 -0.524741,0 -0.97754,-0.171387 -1.358399,-0.51416 -0.380859,-0.342773 -0.571289,-0.776529 -0.571289,-1.30127 0,-0.08463 0.05925,-0.372394 0.177734,-0.863281 z m 7.985352,-12.238281 -2.462891,7.541015 4.938477,0 -2.424805,-7.541015 z"
         id="path3763"
         style="font-size:26px;fill:#ffffff" />
      <path
         d="m 37.007805,32.133789 0,-14.612305 c -10e-7,-1.354148 0.668618,-2.031231 2.00586,-2.03125 l 4.570312,0 c 4.316394,1.9e-5 6.474595,1.959327 6.47461,5.87793 -1.5e-5,1.371105 -0.469741,2.496755 -1.40918,3.376953 -0.85483,0.795582 -1.988943,1.307625 -3.402344,1.536133 l 4.430664,4.722656 c 0.338528,0.363935 0.507798,0.749026 0.507813,1.155274 -1.5e-5,0.541668 -0.190444,1.009278 -0.571289,1.402832 -0.380873,0.393554 -0.837904,0.590332 -1.371094,0.590332 -0.634777,0 -1.138358,-0.224284 -1.510742,-0.672852 l -5.776367,-6.995117 -0.05078,0 0,5.649414 c -5e-6,0.600913 -0.175623,1.087566 -0.526855,1.459961 -0.351241,0.372396 -0.823083,0.558594 -1.415528,0.558594 -0.600914,0 -1.076987,-0.186198 -1.428222,-0.558594 -0.351239,-0.372395 -0.526857,-0.859048 -0.526856,-1.459961 z m 3.897461,-13.063477 0,4.608399 2.678711,0 c 0.744783,10e-6 1.335115,-0.20523 1.770996,-0.615723 0.435863,-0.41047 0.653799,-0.975411 0.653809,-1.694824 -10e-6,-1.531887 -0.808278,-2.297837 -2.424805,-2.297852 z"
         id="path3765"
         style="font-size:26px;fill:#ffffff" />
      <path
         d="m 50.756829,24.745117 c -1e-6,-2.742175 0.829426,-5.023098 2.488281,-6.842773 1.65885,-1.819644 3.808587,-2.729474 6.449219,-2.729492 2.259754,1.8e-5 3.92707,0.495135 5.001953,1.485351 0.397772,0.363949 0.596665,0.842139 0.59668,1.43457 -1.5e-5,0.482438 -0.150243,0.892919 -0.450684,1.231446 -0.30047,0.338556 -0.687677,0.507826 -1.161621,0.507812 -0.236992,1.4e-5 -0.806165,-0.152329 -1.70752,-0.457031 -0.901378,-0.304673 -1.66098,-0.457016 -2.278808,-0.457031 -1.58269,1.5e-5 -2.822598,0.617853 -3.719727,1.853515 -0.77865,1.074882 -1.167973,2.424816 -1.167969,4.049805 -4e-6,1.641935 0.418941,2.983405 1.256836,4.024414 0.92252,1.151046 2.132805,1.726566 3.63086,1.726563 0.643219,3e-6 1.42398,-0.181963 2.342285,-0.545899 0.918282,-0.363928 1.517077,-0.545894 1.796387,-0.545898 0.787095,4e-6 1.324529,0.406254 1.612304,1.21875 0.06769,0.186201 0.101548,0.368167 0.101563,0.545898 -1.5e-5,1.091799 -0.736343,1.912761 -2.208985,2.462891 -1.083345,0.40625 -2.297862,0.609374 -3.643554,0.609375 -2.657559,-10e-7 -4.832687,-0.95638 -6.525391,-2.869141 -1.608074,-1.811193 -2.41211,-4.045566 -2.412109,-6.703125 z"
         id="path3767"
         style="font-size:26px;fill:#ffffff" />
      <path
         d="m 67.374993,32.044922 0,-14.294922 c -10e-7,-1.506493 0.677081,-2.259747 2.03125,-2.259766 l 6.449219,0 c 0.533193,1.9e-5 0.973296,0.165058 1.320312,0.495118 0.346994,0.330095 0.520496,0.761736 0.520508,1.294921 -1.2e-5,0.516293 -0.177746,0.943701 -0.533203,1.282227 -0.35548,0.338557 -0.791352,0.507827 -1.307617,0.507812 l -4.583008,0 0,3.795899 4.265625,0 c 0.575511,1.1e-5 1.036773,0.156586 1.383789,0.469726 0.346994,0.313162 0.520496,0.757497 0.520508,1.333008 -1.2e-5,0.533212 -0.181978,0.964852 -0.545899,1.294922 -0.363942,0.330086 -0.816741,0.495125 -1.358398,0.495117 l -4.265625,0 0,3.948243 4.811523,0 c 0.541656,3e-6 0.985992,0.165042 1.333008,0.495117 0.346994,0.330081 0.520496,0.765953 0.520508,1.307617 -1.2e-5,0.524741 -0.177746,0.954265 -0.533203,1.288574 C 77.04881,33.832845 76.608706,34 76.083977,34 l -6.703125,0 c -0.575523,0 -1.053713,-0.181966 -1.43457,-0.545898 -0.380861,-0.363932 -0.57129,-0.833658 -0.571289,-1.40918 z"
         id="path3769"
         style="font-size:26px;fill:#ffffff" />
      <path
         d="m 79.410149,31.867187 0,-14.510742 c -10e-7,-1.345685 0.651691,-2.018536 1.955078,-2.018554 1.294918,1.8e-5 1.942378,0.672869 1.942383,2.018554 l 0,13.050782 4.633789,0 c 0.55012,3e-6 0.998687,0.165042 1.345703,0.495117 0.346994,0.330081 0.520496,0.765953 0.520508,1.307617 -1.2e-5,0.03386 -1.2e-5,0.05925 0,0.07617 -0.01694,0.490886 -0.207368,0.899252 -0.571289,1.225097 C 88.872378,33.837077 88.440738,34 87.941399,34 l -6.5,0 c -1.354168,0 -2.031251,-0.710937 -2.03125,-2.132813 z"
         id="path3771"
         style="font-size:26px;fill:#ffffff" />
      <path
         d="m 98.694329,30.724609 c 1.599601,4e-6 2.839501,-0.626298 3.719731,-1.878906 0.77863,-1.108718 1.16795,-2.475578 1.16796,-4.100586 -1e-5,-2.649076 -0.9183,-4.4772 -2.75488,-5.484375 -0.60092,-0.330063 -1.311858,-0.495102 -2.132811,-0.495117 -1.574227,1.5e-5 -2.814134,0.630548 -3.719727,1.891602 -0.77865,1.091809 -1.167973,2.454438 -1.167969,4.08789 -4e-6,1.675789 0.410477,3.063808 1.231446,4.164063 0.897129,1.21029 2.115877,1.815433 3.65625,1.815429 z m 0,3.592774 c -2.657559,-10e-7 -4.832687,-0.95638 -6.525391,-2.869141 -1.608074,-1.811193 -2.41211,-4.045566 -2.412109,-6.703125 -10e-7,-2.742175 0.829426,-5.023098 2.488281,-6.842773 1.65885,-1.819644 3.808587,-2.729474 6.449219,-2.729492 2.615221,1.8e-5 4.777651,0.952166 6.487301,2.856445 1.64191,1.828139 2.46288,4.066744 2.46289,6.71582 -1e-5,2.699877 -0.82521,4.95964 -2.47558,6.779297 -1.69272,1.86198 -3.85093,2.792968 -6.474611,2.792969 z"
         id="path3773"
         style="font-size:26px;fill:#ffffff" />
      <path
         d="m 109.11718,32.133789 0,-14.777344 c 0,-1.345685 0.64746,-2.018536 1.94238,-2.018554 0.29622,1.8e-5 0.5988,0.08465 0.90772,0.253906 0.30891,0.169289 0.55224,0.368182 0.72998,0.59668 l 8.25195,10.99414 0.0508,0 0,-9.826172 c -1e-5,-1.345685 0.64745,-2.018536 1.94239,-2.018554 1.30336,1.8e-5 1.95506,0.672869 1.95507,2.018554 l 0,14.777344 c -1e-5,0.600913 -0.17563,1.087566 -0.52685,1.459961 -0.35125,0.372396 -0.82733,0.558594 -1.42822,0.558594 -0.237,0 -0.52899,-0.0931 -0.87598,-0.279297 -0.37241,-0.194661 -0.62632,-0.385091 -0.76172,-0.571289 l -8.23926,-10.867188 -0.0508,0 0,9.699219 c 0,0.600913 -0.17562,1.087566 -0.52685,1.459961 -0.35125,0.372396 -0.82732,0.558594 -1.42823,0.558594 -0.59245,0 -1.06429,-0.186198 -1.41552,-0.558594 -0.35124,-0.372395 -0.52686,-0.859048 -0.52686,-1.459961 z"
         id="path3775"
         style="font-size:26px;fill:#ffffff" />
      <path
         d="m 126.15429,31.473633 5.23047,-14.142578 c 0.5332,-1.438784 1.45995,-2.158185 2.78027,-2.158203 1.33723,1.8e-5 2.26399,0.719419 2.78028,2.158203 l 5.10351,14.142578 c 0.1354,0.372398 0.20311,0.694012 0.20313,0.964844 -2e-5,0.49935 -0.17775,0.909831 -0.53321,1.231445 -0.35548,0.321614 -0.77443,0.482422 -1.25683,0.482422 -0.98179,0 -1.61655,-0.448568 -1.9043,-1.345703 l -0.77441,-2.450196 -7.22364,0 -0.78711,2.424805 c -0.29622,0.914063 -0.91829,1.371094 -1.86621,1.371094 -0.52474,0 -0.97754,-0.171387 -1.3584,-0.51416 -0.38086,-0.342773 -0.57128,-0.776529 -0.57128,-1.30127 0,-0.08463 0.0592,-0.372394 0.17773,-0.863281 z m 7.98535,-12.238281 -2.46289,7.541015 4.93848,0 -2.42481,-7.541015 z"
         id="path3777"
         style="font-size:26px;fill:#ffffff" />
    </g>
    <g
       id="text3820"
       style="font-size:8px;font-style:normal;font-variant:normal;font-weight:bold;font-stretch:normal;line-height:125%;letter-spacing:0px;word-spacing:0px;fill:#ffffff;fill-opacity:1;stroke:none;font-family:'18VAG Rounded M';-inkscape-font-specification:'18VAG Rounded M Bold'">
      <path
         d="m 114.15273,55.581608 0,-9.978516 c -1e-5,-0.575508 0.16926,-1.066393 0.50781,-1.472656 0.33854,-0.406236 0.79134,-0.609361 1.3584,-0.609375 0.59244,1.4e-5 1.0537,0.196791 1.38379,0.590332 0.33007,0.393568 0.49511,0.8908 0.49511,1.491699 l 0,9.978516 c 0,0.600913 -0.16081,1.091798 -0.48242,1.472656 -0.33855,0.40625 -0.80404,0.609375 -1.39648,0.609375 -0.56706,0 -1.01986,-0.203125 -1.3584,-0.609375 -0.33855,-0.406249 -0.50782,-0.897134 -0.50781,-1.472656 z m 1.86621,-17.671875 c 0.57551,1.9e-5 1.07063,0.198912 1.48535,0.59668 0.41471,0.397805 0.62206,0.884458 0.62207,1.45996 -1e-5,0.592465 -0.20525,1.100277 -0.61572,1.523438 -0.41049,0.423193 -0.90772,0.634781 -1.4917,0.634766 -0.56706,1.5e-5 -1.06006,-0.215805 -1.47901,-0.647461 -0.41894,-0.431625 -0.62842,-0.935205 -0.62842,-1.510743 0,-0.550112 0.21159,-1.030417 0.63477,-1.440918 0.42318,-0.410462 0.91406,-0.615703 1.47266,-0.615722 z"
         id="path3780"
         style="font-size:26px;fill:#ffffff" />
      <path
         d="m 119.99257,55.581608 0,-9.978516 c 0,-0.575508 0.16927,-1.066393 0.50781,-1.472656 0.33854,-0.406236 0.79134,-0.609361 1.3584,-0.609375 1.00716,1.4e-5 1.58268,0.461276 1.72656,1.383789 0.74479,-1.024075 1.94661,-1.536119 3.60547,-1.536133 1.55728,1.4e-5 2.80142,0.450697 3.73242,1.352051 0.93098,0.901379 1.39647,2.130707 1.39649,3.687988 l 0,7.172852 c -2e-5,0.600913 -0.16082,1.091798 -0.48242,1.472656 -0.33856,0.40625 -0.80405,0.609375 -1.39649,0.609375 -0.56707,0 -1.01987,-0.203125 -1.3584,-0.609375 -0.33855,-0.406249 -0.50782,-0.897134 -0.50781,-1.472656 l 0,-6.525391 c -1e-5,-0.778636 -0.21583,-1.400706 -0.64746,-1.866211 -0.43165,-0.465484 -1.03256,-0.698231 -1.80274,-0.698242 -0.75326,1.1e-5 -1.33936,0.23699 -1.7583,0.710938 -0.41895,0.473968 -0.62842,1.091806 -0.62841,1.853515 l 0,6.525391 c -1e-5,0.600913 -0.16082,1.091798 -0.48243,1.472656 -0.33854,0.40625 -0.80404,0.609375 -1.39648,0.609375 -0.56706,0 -1.01986,-0.203125 -1.3584,-0.609375 -0.33854,-0.406249 -0.50781,-0.897134 -0.50781,-1.472656 z"
         id="path3782"
         style="font-size:26px;fill:#ffffff" />
      <path
         d="m 135.32851,55.581608 0,-8.620117 -0.83789,0 c -1.0918,10e-6 -1.6377,-0.550119 -1.6377,-1.650391 0,-0.465482 0.15658,-0.854805 0.46973,-1.167969 0.31315,-0.313137 0.70247,-0.469712 1.16797,-0.469726 l 0.83789,0 0,-1.916992 c -1e-5,-1.286442 0.33007,-2.306298 0.99023,-3.059571 0.69401,-0.804017 1.67155,-1.206034 2.93262,-1.206054 1.73502,2e-5 2.60253,0.562844 2.60254,1.688476 -1e-5,1.05796 -0.51206,1.586931 -1.53614,1.586914 -0.49935,1.7e-5 -0.83366,0.101579 -1.00293,0.304688 -0.16927,0.203141 -0.25391,0.562841 -0.2539,1.079101 l 0,1.523438 1.18066,0 c 1.26106,1.4e-5 1.8916,0.545911 1.8916,1.637695 0,1.100272 -0.63054,1.650401 -1.8916,1.650391 l -1.18066,0 0,8.620117 c -1e-5,0.600913 -0.15658,1.091798 -0.46973,1.472656 -0.33854,0.40625 -0.80404,0.609375 -1.39648,0.609375 -0.59245,0 -1.05795,-0.203125 -1.39649,-0.609375 -0.31315,-0.372395 -0.46973,-0.86328 -0.46972,-1.472656 z"
         id="path3784"
         style="font-size:26px;fill:#ffffff" />
      <path
         d="m 148.3412,43.368717 c 1.95507,1.4e-5 3.57584,0.727878 4.86231,2.183594 1.23566,1.404958 1.8535,3.093433 1.85351,5.06543 -1e-5,2.005864 -0.60939,3.694339 -1.82812,5.065429 -1.26954,1.430339 -2.89878,2.145508 -4.8877,2.145508 -1.98894,0 -3.61817,-0.710937 -4.88769,-2.132812 -1.21029,-1.371091 -1.81543,-3.063798 -1.81543,-5.078125 0,-1.963533 0.61783,-3.647776 1.85351,-5.052735 1.29492,-1.464179 2.91146,-2.196275 4.84961,-2.196289 z m 0,3.427735 c -0.95638,10e-6 -1.70964,0.418955 -2.25976,1.256836 -0.4655,0.710946 -0.69825,1.565763 -0.69825,2.564453 0,1.015631 0.24121,1.874679 0.72364,2.577148 0.54166,0.795577 1.28645,1.193363 2.23437,1.193359 0.93945,4e-6 1.68424,-0.406246 2.23438,-1.21875 0.49087,-0.727859 0.73631,-1.578444 0.73632,-2.551757 -1e-5,-1.641919 -0.53744,-2.801423 -1.6123,-3.478516 -0.36394,-0.228505 -0.81674,-0.342763 -1.3584,-0.342773 z"
         id="path3786"
         style="font-size:26px;fill:#ffffff" />
    </g>
  </g>
</svg>