<?xml version="1.0" encoding="UTF-8" standalone="no"?>
<!-- Created with Inkscape (http://www.inkscape.org/) -->

<svg xmlns="http://www.w3.org/2000/svg" viewBox="0 0 64 64"><defs><style>.cls-1{fill:#6d51aa;}.cls-2{fill:#fff;}path.cls-80{fill:#ffe47f;} path.cls-81{fill:#ffae1a;} path, rect, ellipse, polygon, circle {fill: #58389d;} path.cls-82 {fill: #fff;}</style></defs><title>Авто</title>   <g>            <path d="m 1632.9115,32.153568 a 197.17009,196.93428 0 1 1 -0,-1.073465" transform="matrix(0.16229635,0,0,0.16250059,-201.01373,26.775505)" class="cls-80"></path>     <path d="m 1620.2847,33.562031 a 183.17804,184.41415 0 1 1 -0,-1.00522" transform="matrix(0.16065549,0,0,0.15958836,-198.87721,26.644369)" class="cls-81"></path>     <path d="m 1607.1527,32.108135 a 169.6478,168.69545 0 1 1 -0,-0.919538" transform="matrix(0.16167942,0,0,0.16260208,-200.41309,26.779629)" class="cls-82"></path>       <path d="m 7.9950038,24.272 c -0.04461,0.56048 0.29024,1.061235 0.7794242,1.225004 l 1.787503,0.6075 0,1.46 -1.872511,0.8075 C 8.2851318,28.54632 8.0039638,28.974231 8.0044278,29.414503 l 0,3.857501 c 0,0.229658 0.07152,0.458853 0.202496,0.647499 l 2.2424952,3.232502 c 0.207936,0.299657 0.567776,0.487774 0.932512,0.487499 l 2.28,0 c 0.585264,1.755527 2.243904,3.032501 4.18,3.032501 1.93424,0 3.57624,-1.278717 4.157488,-3.032501 l 17.610002,0 c 0.58526,1.755527 2.24392,3.032501 4.18,3.032501 1.93425,0 3.57625,-1.278717 4.1575,-3.032501 2.25789,-8e-5 4.74135,0.0021 6.8925,0 0.65133,-0.02349 1.14701,-0.539426 1.1564,-1.133749 -0.0364,-0.650734 -0.562,-1.136124 -1.1564,-1.133751 l -0.43499,0 -0.98,-3.477501 c -0.49149,-1.254857 -1.30268,-2.009288 -2.46501,-2.465 L 32.949419,23.349504 c -0.116512,-0.03949 -0.239472,-0.05984 -0.362496,-0.06 l -11.882496,0 c -0.154208,-1.6e-4 -0.308384,0.0315 -0.45,0.0925 l -7.425008,3.2025 0,-1.2925 c 0.0016,-0.470579 -0.32432,-0.923958 -0.77,-1.075 l -2.554992,-0.8675 C 8.754924,23.205217 8.0980118,23.550398 7.9950038,24.272 z m 12.9419192,1.285004 11.465008,0 5.07,1.7125 -20.502512,0 z m -9.222496,3.98 32.467504,0 5.98,2.02 c 0.56442,0.216717 0.87613,0.560192 1.10749,1.05 l 0.78,2.765 -3.9625,0 c -0.41251,-2.007601 -2.18368,-3.532501 -4.2975,-3.532501 -2.11859,0 -3.90922,1.522372 -4.32,3.532501 l -17.330002,0 c -0.412512,-2.007601 -2.18368,-3.532501 -4.297488,-3.532501 -2.118592,0 -3.909232,1.522372 -4.32,3.532501 l -1.547504,0 -1.702496,-2.452501 0,-2.76 z m 6.127504,4.58 c 1.19728,0 2.13352,0.937203 2.14,2.125001 -1.6e-5,0.0033 -1.6e-5,0.0067 0,0.01 0,1.192585 -0.93792,2.142499 -2.14,2.142499 -1.202096,0 -2.15,-0.949914 -2.15,-2.142499 0,-1.192586 0.947904,-2.135001 2.15,-2.135001 z m 25.94749,0 c 1.19728,0 2.13353,0.937203 2.14,2.125001 -2e-5,0.0033 -2e-5,0.0067 0,0.01 0,1.192585 -0.93791,2.142499 -2.14,2.142499 -1.20208,0 -2.15,-0.949914 -2.15,-2.142499 0,-1.192586 0.94792,-2.135001 2.15,-2.135001 z"></path> </g> </svg>