<?xml version="1.0" encoding="UTF-8" standalone="no"?>
<!-- Created with Inkscape (http://www.inkscape.org/) -->

<svg  xmlns="http://www.w3.org/2000/svg" viewBox="0 0 64 64"><defs><style>.cls-1{fill:#6d51aa;}.cls-2{fill:#fff;} path.cls-80{fill:#ffe47f;} path.cls-81{fill:#ffae1a;}path, rect, ellipse, polygon, circle {fill: #58389d;} path.cls-82 {fill: #fff;}</style></defs><title>Красота</title>   <g>            <path d="m 1632.9115,32.153568 a 197.17009,196.93428 0 1 1 -0,-1.073465" transform="matrix(0.16229635,0,0,0.16250059,-201.01373,26.775505)" class="cls-80"></path>     <path d="m 1620.2847,33.562031 a 183.17804,184.41415 0 1 1 -0,-1.00522" transform="matrix(0.16065549,0,0,0.15958836,-198.87721,26.644369)" class="cls-81"></path>     <path d="m 1607.1527,32.108135 a 169.6478,168.69545 0 1 1 -0,-0.919538" transform="matrix(0.16167942,0,0,0.16260208,-200.41309,26.779629)" class="cls-82"></path>       <path d="m 40.512515,16.115033 c -2.3082,0.0069 -3.93392,1.122368 -5.12251,2.775009 -0.0294,0.04066 -0.0562,0.08328 -0.08,0.127488 -1.54907,2.898374 -2.745343,6.095038 -3.707486,9.385004 l -5.917503,0.567501 c -0.787536,-0.754837 -1.850464,-1.22 -3.017504,-1.22 -2.413152,0 -4.399248,1.976712 -4.407504,4.397497 -0.595072,0.09455 -1.268624,0.319554 -1.887504,0.207501 -0.787104,-0.369848 -1.37608,-0.810822 -2.024992,-1.402499 -0.655136,-0.561082 -1.588128,-0.244925 -1.853024,0.429878 -0.153552,0.421202 -0.02725,0.929709 0.30552,1.23012 0.885424,0.757371 2.033456,1.700509 3.065008,1.952501 1.054144,0.181765 2.031936,-0.0011 2.972496,-0.225 0.761536,1.336544 2.198112,2.245 3.83,2.245 1.545248,0 2.90192,-0.817459 3.682496,-2.04 1.224431,0.0042 2.463263,0.01525 3.712511,0.0175 -0.36208,1.689547 -0.682208,3.37164 -0.972512,5.017501 -1.390912,0.744078 -2.344992,2.215354 -2.344992,3.8975 0,2.427689 1.989312,4.42 4.407504,4.42 2.321087,0 4.221506,-1.841173 4.372496,-4.135 0.1099,-0.979742 -0.39803,-2.296662 -0.90003,-2.9675 l 1.91249,-6.365 c 3.78842,-0.200638 7.28164,-0.592522 10.84108,-1.757501 0.0479,-0.01602 0.36611,-0.135245 0.41144,-0.157499 1.83392,-0.883549 3.21748,-2.293037 3.62499,-4.564998 0.06,-0.334862 0.13107,-0.907021 -0.0939,-1.162184 -0.29423,-0.260539 -0.80594,-0.179718 -1.13107,-0.165317 l -11.64,1.115 3.05249,-10.162501 c 0.10139,-0.337744 0.30629,-0.954176 0.0953,-1.236752 -0.21098,-0.282576 -0.83269,-0.224464 -1.18533,-0.223248 z m -1.5975,2.522497 -2.8025,9.332505 -2.065,0.197499 c 0.87321,-2.839267 1.92532,-5.558483 3.225,-8.004996 0.56884,-0.784224 1.01797,-1.266752 1.6425,-1.525008 z m 9.76499,10.407505 c -0.36163,0.594308 -0.91837,0.959235 -1.80749,1.392499 -6.02916,1.954473 -13.01486,1.870885 -19.810012,1.842499 0.0069,-0.387349 -0.04973,-0.808149 -0.132496,-1.152499 z m -26.012493,0.982499 c 1.19728,0 2.13352,0.939704 2.14,2.127499 -1.6e-5,0.0025 -1.6e-5,0.005 0,0.0075 0,1.192586 -0.93792,2.145 -2.14,2.145 -1.20208,0 -2.15,-0.952414 -2.15,-2.145 0,-1.192584 0.94792,-2.134998 2.15,-2.134998 z m 11.477503,4.494998 -1.450001,4.827501 c -0.381504,-0.145946 -0.786991,-0.240027 -1.209999,-0.272501 0.272896,-1.495937 0.57384,-3.011229 0.907503,-4.525 0.583664,-0.0061 1.167408,-0.01531 1.752497,-0.03 z m -2.992496,6.82 c 1.197263,0 2.133519,0.937203 2.139999,2.125001 -1.6e-5,0.0033 -1.6e-5,0.0067 0,0.01 0,1.192585 -0.93792,2.1425 -2.139999,2.1425 -1.202096,0 -2.15,-0.949915 -2.15,-2.1425 0,-1.192585 0.947904,-2.135001 2.15,-2.135001 z"></path> </g> </svg>
