<?xml version="1.0" encoding="UTF-8" standalone="no"?>
<!-- Created with Inkscape (http://www.inkscape.org/) -->

<svg  xmlns="http://www.w3.org/2000/svg" viewBox="0 0 64 64"><defs><style>.cls-1{fill:#6d51aa;}.cls-2{fill:#fff;} path.cls-80{fill:#ffe47f;} path.cls-81{fill:#ffae1a;}path, rect, ellipse, polygon, circle {fill: #58389d;} path.cls-82 {fill: #fff;}</style></defs><title>Кафе</title>   <g>            <path d="m 1632.9115,32.153568 a 197.17009,196.93428 0 1 1 -0,-1.073465" transform="matrix(0.16229635,0,0,0.16250059,-201.01373,26.775505)" class="cls-80"></path>     <path d="m 1620.2847,33.562031 a 183.17804,184.41415 0 1 1 -0,-1.00522" transform="matrix(0.16065549,0,0,0.15958836,-198.87721,26.644369)" class="cls-81"></path>     <path d="m 1607.1527,32.108135 a 169.6478,168.69545 0 1 1 -0,-0.919538" transform="matrix(0.16167942,0,0,0.16260208,-200.41309,26.779629)" class="cls-82"></path>       <path d="m 22.545487,17.703376 c -0.439536,0.491584 -0.4088,1.21376 0.02,1.634992 l 3.112497,3.115002 c 0.68579,1.058301 -0.87823,2.230414 -1.577505,1.582499 l -0.0026,-0.0025 -3.114992,-3.115005 c -0.0077,-0.0066 -0.01472,-0.0136 -0.0225,-0.02 -0.48896,-0.46704 -1.23776,-0.445552 -1.667504,-0.005 -0.411664,0.49192 -0.373184,1.193104 0.0425,1.605005 0.0104,0.012 0.02165,0.02594 0.0325,0.0375 l 3.115008,3.112499 c 0.0083,0.0083 0.01659,0.01683 0.02499,0.025 0.630448,1.060567 -0.91248,2.208856 -1.614992,1.557501 l -3.1,-3.125 c -0.485792,-0.435621 -1.197456,-0.414523 -1.625008,0 -0.435584,0.485816 -0.414848,1.19945 0,1.627499 l 3.125008,3.125 c 0,0 1.701712,1.704211 2.56,2.562501 1.334608,1.334617 3.311647,1.609473 4.984987,1.000001 l 1.00252,1.057498 -7.755011,7.357501 0,0.0025 c -1.329808,1.258577 -1.361968,3.400529 -0.0675,4.695002 1.29448,1.294472 3.438928,1.264808 4.697504,-0.065 l 0.0026,0 7.247501,-7.639999 7.3225,7.719999 c 0.62888,0.665912 1.46933,1.012984 2.32501,1.025 0.85566,0.01202 1.72723,-0.30284 2.375,-0.95 1.29493,-1.294929 1.25621,-3.444113 -0.075,-4.702499 l -7.83253,-7.429999 1.30252,-1.3725 c 2.41468,0.594409 5.19923,-0.320923 7.275,-2.3975 1.44146,-1.441461 2.56424,-3.434845 3.1125,-5.44 0.54827,-2.005157 0.56781,-4.18469 -0.8725,-5.624994 -1.78601,-1.44416 -3.66929,-1.399104 -5.625,-0.872512 -2.00517,0.548272 -3.99855,1.67104 -5.44,3.112512 -2.07573,2.07653 -2.99236,4.860092 -2.39751,7.274994 l -1.48249,1.405 -1.16501,-1.105 c 0.64449,-1.683949 0.47409,-3.6784 -0.90499,-5.057501 -0.87205,-0.818633 -2.58751,-2.577493 -2.58751,-2.577493 l -3.114989,-3.112512 c -0.508752,-0.415728 -1.191328,-0.450032 -1.635008,-0.02 z m 22.750017,2.554992 c 0.55328,0.553296 0.72264,1.833552 0.28749,3.425002 -0.43514,1.591443 -1.42826,3.33076 -2.53002,4.432499 -1.75477,1.755469 -4.0817,2.258754 -5.5925,1.66 -0.41748,-0.165693 -0.93044,-0.05296 -1.24,0.272501 L 23.072975,43.908369 c -0.0016,8e-4 -0.0016,0.0017 -0.0024,0.0025 -0.4008,0.424002 -1.035232,0.432269 -1.447488,0.02 -0.412272,-0.41227 -0.404016,-1.04669 0.02,-1.447501 0.0016,-8e-4 0.0016,-0.0017 0.0024,-0.0025 L 35.505484,29.33337 c 0.32546,-0.309546 0.43819,-0.82252 0.2725,-1.24 -0.59871,-1.510658 -0.0952,-3.836642 1.66,-5.592501 1.10174,-1.101733 2.84105,-2.094853 4.43249,-2.530005 1.03938,-0.259008 2.63794,-0.463232 3.42503,0.287504 z m -17.51503,4.287501 0.4825,0.475 c 0.77979,0.779816 0.82373,2.193435 0.22501,3.152501 -0.13877,0.219219 -0.19909,0.484987 -0.16751,0.742499 0.0316,0.257514 0.15487,0.503322 0.3425,0.682501 l 1.63501,1.547499 -0.83,0.787502 -1.53,-1.610001 c -0.17434,-0.185499 -0.41304,-0.308733 -0.66501,-0.345 -0.25195,-0.03627 -0.51542,0.0137 -0.73499,0.142499 -0.94477,0.589248 -2.219425,0.505575 -3.050001,-0.325 l -0.48,-0.477499 c 1.062848,-0.558618 1.817101,-1.75025 1.937501,-2.817501 1.31469,-0.26555 2.26367,-0.848179 2.83499,-1.955 z m 6.73501,10.595 7.84499,7.4325 c 0.424,0.400811 0.43978,1.03773 0.0275,1.45 -0.41325,0.412907 -1.05018,0.398376 -1.45,-0.025 l -7.42,-7.804999 z"></path> </g> </svg>