<?xml version="1.0" encoding="UTF-8" standalone="no"?>
<!-- Created with Inkscape (http://www.inkscape.org/) -->

<svg  xmlns="http://www.w3.org/2000/svg" viewBox="0 0 64 64"><defs><style>.cls-1{fill:#6d51aa;}.cls-2{fill:#fff;} path.cls-80{fill:#ffe47f;} path.cls-81{fill:#ffae1a;}path, rect, ellipse, polygon, circle {fill: #58389d;} path.cls-82 {fill: #fff;}</style></defs><title>Бары</title>   <g>            <path d="m 1632.9115,32.153568 a 197.17009,196.93428 0 1 1 -0,-1.073465" transform="matrix(0.16229635,0,0,0.16250059,-201.01373,26.775505)" class="cls-80"></path>     <path d="m 1620.2847,33.562031 a 183.17804,184.41415 0 1 1 -0,-1.00522" transform="matrix(0.16065549,0,0,0.15958836,-198.87721,26.644369)" class="cls-81"></path>     <path d="m 1607.1527,32.108135 a 169.6478,168.69545 0 1 1 -0,-0.919538" transform="matrix(0.16167942,0,0,0.16260208,-200.41309,26.779629)" class="cls-82"></path>       <g transform="matrix(0.8,0,0,-0.8,39.509001,19.400834)">       <path d="m 30.625,14.3125 c -1.528328,0 -2.790102,0.794377 -3.71875,1.875 -0.09572,-0.0087 -0.18329,-0.0625 -0.28125,-0.0625 -1.478632,0 -2.738856,1.011591 -3.125,2.375 -0.69064,0.341318 -1.1875,1.037118 -1.1875,1.875 l 0,1.5625 c 0,4.817719 0.497882,9.624446 1.53125,14.34375 0.733824,3.351835 1.125,6.736337 1.125,10.15625 l 0,0.15625 0.09375,0.75 c 0.180512,1.402142 1.419828,2.375 2.8125,2.375 l 8.21875,0 c 1.392672,0 2.663326,-0.973595 2.84375,-2.375 l 0.09375,-0.75 0,-0.15625 c 0,-3.419913 0.391176,-6.804415 1.125,-10.15625 1.033368,-4.719304 1.5625,-9.526031 1.5625,-14.34375 l 0,-1.5625 c 0,-0.813097 -0.490178,-1.492712 -1.15625,-1.84375 C 40.184012,17.063552 38.852426,16 37.28125,16 c -0.365104,0 -0.4709,0.116922 -0.6875,0.1875 -0.569192,-0.485222 -1.231218,-0.84375 -2.03125,-0.84375 -0.287192,0 -0.546092,0.116646 -0.8125,0.1875 -0.870216,-0.705583 -1.923528,-1.21875 -3.125,-1.21875 z m 0,2.28125 c 0.823984,0 1.551956,0.344998 2.0625,0.90625 0.380904,0.375639 0.940704,0.448518 1.375,0.21875 0.144392,-0.07924 0.326736,-0.125 0.5,-0.125 0.347064,0 0.60425,0.175538 0.78125,0.4375 0.328832,0.449901 0.8992,0.624461 1.375,0.4375 0.195568,-0.07653 0.629462,-0.169548 0.59375,-0.1875 0.473176,0.03858 1.125,0.656964 1.125,1.09375 0,0.449618 -0.62689,1 -1.15625,1 -0.514912,0 -1.014794,-0.225609 -1.03125,-0.25 -0.323992,-0.435245 -0.87651,-0.579712 -1.34375,-0.40625 -1.020792,0.392755 -1.53665,1.189896 -1.78125,1.625 -0.2446,0.435104 -0.225124,0.560419 -0.8125,0.8125 -0.412128,0.170718 -0.719678,0.616413 -0.71875,1.0625 l 0,4.75 c 0,0 0.001,0.04435 0,0.0625 -0.0305,0.530497 -0.461816,0.96875 -1,0.96875 -0.558112,0 -1.03993,-0.473206 -1.03125,-1.03125 0,-0.01464 -3.2e-5,-0.02198 0,-0.03125 l 0,-4.84375 c 0,-0.471777 -0.302488,-0.944404 -0.75,-1.09375 -0.05742,0.0028 -0.07173,-0.01178 -0.09375,-0.03125 -0.05314,-0.122322 -0.162136,-0.592762 -0.5,-1.15625 -0.295552,-0.443514 -0.810218,-0.635954 -1.28125,-0.5 -0.09249,0.02986 -0.20606,0.03125 -0.3125,0.03125 -0.555512,0 -1,-0.41446 -1,-0.96875 0,-0.55551 0.444488,-1 1,-1 0.103744,0 0.215084,0.03143 0.3125,0.0625 0.51724,0.130658 1.023154,-0.08386 1.28125,-0.5 0.487776,-0.813334 1.381042,-1.34375 2.40625,-1.34375 z m -6.0625,5.25 c 0.545424,0.441718 1.249616,0.73135 2,0.75 0.03662,0.10043 0.03471,0.114105 0.09375,0.25 0.110736,0.25489 0.355386,0.554322 0.65625,0.8125 l 0,1.09375 C 26.419348,24.417446 25.380696,24.574957 24.625,25 24.576352,23.97681 24.5625,22.96315 24.5625,21.9375 l 0,-0.09375 z m 14.875,0.0625 0,0.03125 c 0,1.018144 -0.04581,2.015525 -0.09375,3.03125 L 39.3125,24.9375 c -0.944472,-0.544591 -2.118028,-0.544591 -3.0625,0 -0.246312,0.142029 -0.534938,0.142029 -0.78125,0 -0.533232,-0.257434 -1.087238,-0.406254 -1.59375,-0.40625 l 0,-0.78125 c 0.591816,-0.444308 1.027462,-0.940979 1.21875,-1.28125 0.1266,-0.225198 0.246772,-0.226969 0.3125,-0.3125 0.620728,0.323386 1.280392,0.5 1.875,0.5 0.802936,0 1.558722,-0.279426 2.15625,-0.75 z m -1.65625,4.875 c 0.132268,0 0.252032,0.0541 0.375,0.125 L 39.125,27.4375 c 0.01598,0.01201 0.04592,0.02032 0.0625,0.03125 -0.240048,2.78289 -0.649784,5.571354 -1.25,8.3125 -0.757832,3.461481 -1.14557,6.998302 -1.15625,10.53125 -0.05347,0.545474 -0.115636,1.14224 -0.6875,1.15625 l -8.21875,0 c -0.616072,-0.05883 -0.595754,-0.547285 -0.65625,-1.03125 0,-3.583287 -0.387674,-7.145685 -1.15625,-10.65625 -0.598968,-2.735439 -1.009688,-5.504216 -1.25,-8.28125 0.342664,-0.192147 0.685546,-0.393605 1.03125,-0.59375 0.26384,-0.134562 0.542434,-0.134533 0.78125,0 0.237944,0.137198 0.468228,0.240618 0.6875,0.3125 l 0,0.8125 c 0.123616,1.623718 1.892148,2.889119 3.1875,2.875 1.660968,-0.0181 3.346528,-1.572808 3.375,-2.875 l 0,-1.21875 c 0.150168,-0.01112 0.29738,0.01296 0.4375,0.09375 0.94408,0.544371 2.11842,0.544371 3.0625,0 0.122968,-0.0709 0.273982,-0.125 0.40625,-0.125 z M 29.6875,43.8125 c -0.224168,-0.0059 -0.42599,0.09406 -0.59375,0.28125 -0.34992,0.449109 -0.392584,1.072075 -0.125,1.53125 0.200928,0.271482 0.411414,0.457034 0.71875,0.4375 l 4.5625,0 c 0.244312,0.0362 0.499628,-0.05016 0.6875,-0.25 C 35.323908,45.330533 35.346192,44.621648 35,44.15625 34.775056,43.928384 34.527688,43.777382 34.25,43.8125 l -4.5625,0 z" transform="matrix(1.25,0,0,-1.25,-49.386251,24.251042)"></path>     </g> </g> </svg>