<?xml version="1.0" encoding="UTF-8" standalone="no"?>
<!-- Created with Inkscape (http://www.inkscape.org/) -->

<svg  xmlns="http://www.w3.org/2000/svg" viewBox="0 0 64 64"><defs><style>.cls-1{fill:#6d51aa;}.cls-2{fill:#fff;} path.cls-80{fill:#ffe47f;} path.cls-81{fill:#ffae1a;}path, rect, ellipse, polygon, circle {fill: #58389d;} path.cls-82 {fill: #fff;}</style></defs><title>Услуги</title>   <g>            <path d="m 1632.9115,32.153568 a 197.17009,196.93428 0 1 1 -0,-1.073465" transform="matrix(0.16229635,0,0,0.16250059,-201.01373,26.775505)" class="cls-80"></path>     <path d="m 1620.2847,33.562031 a 183.17804,184.41415 0 1 1 -0,-1.00522" transform="matrix(0.16065549,0,0,0.15958836,-198.87721,26.644369)" class="cls-81"></path>     <path d="m 1607.1527,32.108135 a 169.6478,168.69545 0 1 1 -0,-0.919538" transform="matrix(0.16167942,0,0,0.16260208,-200.41309,26.779629)" class="cls-82"></path>       <g transform="matrix(0.51612006,-0.51612008,-0.51612008,-0.51612006,-279.6874,109.58232)">       <path d="m 406.83884,-225.1172 c -0.25344,2.88874 -2.80637,5.03351 -5.69576,4.77931 l -17.64384,-1.54364 -0.41076,4.69501 c -0.0634,0.71633 -0.60731,1.29762 -1.31935,1.40426 l -8.02458,1.21645 c -0.4726,0.0715 -0.94952,-0.0786 -1.29851,-0.40585 -0.15939,-0.14953 -0.27941,-0.33074 -0.36305,-0.52687 l -11.99644,1.53941 c -0.48454,0.062 -0.96971,-0.10924 -1.31109,-0.45852 -0.20724,-0.21121 -5.03941,-5.28535 -4.16525,-15.26898 0.74619,-8.52907 4.68096,-12.61267 6.21152,-13.89696 0.33859,-0.28411 0.55772,-0.43155 0.60065,-0.45974 0.38978,-0.25266 0.86983,-0.31894 1.31202,-0.1809 l 11.55029,3.59948 c 0.0836,-0.12755 0.17994,-0.249 0.29868,-0.34863 0.0467,-0.0392 0.0951,-0.0744 0.14691,-0.10751 0.40051,-0.26165 0.89903,-0.32715 1.35267,-0.1739 l 7.68832,2.58771 c 0.68258,0.23007 1.11884,0.89569 1.05546,1.61202 l -0.41076,4.69502 17.64383,1.54363 c 1.39898,0.1224 2.66743,0.78257 3.57118,1.85963 0.90314,1.07631 1.33025,2.4406 1.20786,3.83957 z m -3.11454,-0.16247 c 0.005,-0.0361 0.006,-0.0725 0.01,-0.10919 0.0491,-0.56993 -0.12479,-1.12458 -0.49247,-1.56276 -0.36832,-0.43894 -0.8834,-0.70921 -1.45321,-0.75977 l -17.64383,-1.54363 -0.37345,4.2685 17.64384,1.54364 c 1.14172,0.0992 2.15335,-0.71679 2.30956,-1.83679 z m -23.63394,6.59998 1.52423,-17.42205 -4.65212,-1.56912 -1.72573,19.7252 4.85362,-0.73403 z m -7.92381,0.0253 1.64931,-18.85171 -11.22217,-3.49857 c -0.50064,0.4488 -2.08577,2.54057 -2.08577,2.54057 0,0 -0.12548,0.20118 -0.28955,0.48008 l 4.61987,1.38751 a 1.5535902,1.5535902 0 0 1 1.11641,1.66205 1.5535902,1.5535902 0 0 1 -2.01302,1.31606 l -5.00169,-1.50343 c -0.28218,0.9096 -0.84283,2.80583 -1.04115,4.15851 0.12595,0.0166 0.24463,0.0353 0.36672,0.0527 l 4.59265,0.40181 a 1.5535902,1.5535902 0 0 1 1.43223,1.70687 1.5535902,1.5535902 0 0 1 -1.70299,1.38788 l -4.95433,-0.43345 c -0.0309,1.36794 0.21507,3.36628 0.34266,4.29677 l 5.1384,-0.60941 a 1.5535902,1.5535902 0 0 1 1.74973,1.69339 1.5535902,1.5535902 0 0 1 -1.38358,1.39176 l -4.80487,0.56983 c 0.14342,0.30945 0.28875,0.47223 0.28875,0.47223 0,0 1.17041,2.32044 1.5779,2.87141 l 11.62448,-1.49287 z"></path>     </g> </g> </svg>
