<?xml version="1.0" encoding="UTF-8" standalone="no"?>
<!-- Created with Inkscape (http://www.inkscape.org/) -->

<svg  xmlns="http://www.w3.org/2000/svg" viewBox="0 0 64 64"><defs><style>.cls-1{fill:#6d51aa;}.cls-2{fill:#fff;} path.cls-80{fill:#ffe47f;} path.cls-81{fill:#ffae1a;}path, rect, ellipse, polygon, circle {fill: #58389d;} path.cls-82 {fill: #fff;}</style></defs><title>Развлечение</title>
  <g>

    <path d="m 1632.9115,32.153568 a 197.17009,196.93428 0 1 1 -0,-1.073465" transform="matrix(0.16229635,0,0,0.16250059,-201.01373,26.775505)" class="cls-80"></path>
    <path d="m 1620.2847,33.562031 a 183.17804,184.41415 0 1 1 -0,-1.00522" transform="matrix(0.16065549,0,0,0.15958836,-198.87721,26.644369)" class="cls-81"></path>
    <path d="m 1607.1527,32.108135 a 169.6478,168.69545 0 1 1 -0,-0.919538" transform="matrix(0.16167942,0,0,0.16260208,-200.41309,26.779629)" class="cls-82"></path>
    <path d="m 27.22534,12.056679 c -6.720744,0 -12.175001,5.479256 -12.175001,12.2 0,5.915379 2.984394,9.922675 5.925001,12.325 0.880088,0.718987 1.763262,1.301584 2.57,1.77 l -0.81,4.117501 c -0.112256,0.73023 0.432061,1.358364 1.1,1.375 l 1.71,0 c -0.166105,0.380662 -0.3025,0.847939 -0.3025,1.397499 0,1.072032 0.452516,1.849605 0.725,2.275 0.272483,0.425397 0.375,0.509699 0.375,1.1 0.01837,0.599027 0.456175,1.077384 1,1.15 0.708853,0.04617 1.278084,-0.505615 1.274999,-1.15 0,-1.085699 -0.448283,-1.867995 -0.725,-2.3 -0.276716,-0.432003 -0.374999,-0.510231 -0.374999,-1.075 0.05415,-0.659693 0.336764,-0.890261 0.599999,-1.397499 l 2.517501,0 c 0.748551,-0.03548 1.256995,-0.711109 1.124999,-1.375 l -0.64,-3.252501 c 0.17941,0.159749 0.360295,0.313179 0.54,0.46 0.806892,0.65924 1.612125,1.196928 2.35,1.632501 l -0.792499,4.027499 c -0.112256,0.730232 0.432061,1.358366 1.1,1.375 l 2.717499,0 c 0.217404,0.348565 0.350871,0.659069 0.3525,0.92 0,0.506374 -0.06791,0.548632 -0.325,0.95 -0.257093,0.401368 -0.675,1.149241 -0.675,2.175 0.01837,0.599027 0.456176,1.077384 1,1.15 0.698128,0.03043 1.251603,-0.515368 1.25,-1.15 0,-0.530242 0.09709,-0.555168 0.35,-0.95 0.252907,-0.394832 0.675,-1.161373 0.675,-2.175 0,-0.33861 -0.05504,-0.645231 -0.135,-0.92 l 1.59,0 c 0.748552,-0.03547 1.256997,-0.711109 1.125,-1.375 l -0.84,-4.27 c 0.628043,-0.388917 1.29347,-0.847478 1.957501,-1.39 2.743184,-2.241216 5.55,-5.980205 5.55,-11.5 0,-6.28472 -5.11528,-11.4 -11.400001,-11.4 -0.21596,0 -0.429806,0.0051 -0.6425,0.0175 -2.234824,-2.879681 -5.728487,-4.7375 -9.642499,-4.7375 z m 0,2.275 c 5.495255,0 9.924999,4.429744 9.924999,9.925 0,5.160621 -2.511006,8.434925 -5.1,10.55 -1.389606,1.135237 -2.679062,1.856119 -3.589999,2.287501 l -2.4575,0 c -0.906337,-0.432389 -2.188709,-1.15293 -3.5775,-2.287501 -2.588994,-2.115075 -5.125,-5.389379 -5.125,-10.55 0,-5.495256 4.429744,-9.925 9.925,-9.925 z m -0.325,1.542501 c -0.643005,0.04906 -1.116742,0.572707 -1.11362,1.161246 0.04898,0.64301 0.57258,1.116808 1.16112,1.113754 3.21902,0 4.713701,1.154283 6,3.925 0.498735,0.835429 1.540882,0.868061 2.010035,0.12881 0.199312,-0.328866 0.214972,-0.761394 0.03996,-1.10381 -1.518502,-3.270885 -4.169822,-5.225 -8.05,-5.225 -0.01583,-3.2e-4 -0.03167,-3.2e-4 -0.0475,0 z m 11.369999,3.21 c 4.700261,0.383253 8.365001,4.289285 8.365001,9.092499 0,4.765007 -2.333384,7.796018 -4.725001,9.75 -1.221716,0.998159 -2.35318,1.639939 -3.18,2.035 l -2.475,0 c -1.553259,-0.851453 -2.661902,-1.542129 -3.815,-2.592499 0.341741,-0.242272 0.688412,-0.504355 1.035,-0.787501 2.940607,-2.402325 5.95,-6.409621 5.95,-12.325 0,-0.438081 -0.02211,-0.871141 -0.0675,-1.297499 1.396856,0.5456 2.322504,1.646094 3.11,3.342499 0.468525,0.820486 1.495785,0.870005 1.987561,0.191389 0.227672,-0.32886 0.262364,-0.781687 0.08744,-1.141389 -1.153403,-2.484637 -3.072572,-4.256699 -5.7075,-4.84 -0.158828,-0.490454 -0.347774,-0.966152 -0.565,-1.427499 z m -12.609999,20.285 3.175,0 0.425,2.2 -4.025,0 z m 10.482499,2.867499 3.175,0 0.425,2.2 -4.025,0 z"></path>
  </g>
</svg>