<?xml version="1.0" encoding="UTF-8" standalone="no"?>
<!-- Created with Inkscape (http://www.inkscape.org/) -->

<svg  xmlns="http://www.w3.org/2000/svg" viewBox="0 0 64 64"><defs><style>.cls-1{fill:#6d51aa;}.cls-2{fill:#fff;} path.cls-80{fill:#ffe47f;} path.cls-81{fill:#ffae1a;}path, rect, ellipse, polygon, circle {fill: #58389d;} path.cls-82 {fill: #fff;}</style></defs><title>Спорт</title>
  <g>

    <path d="m 1632.9115,32.153568 a 197.17009,196.93428 0 1 1 -0,-1.073465" transform="matrix(0.16229635,0,0,0.16250059,-201.01373,26.775505)" class="cls-80"></path>
    <path d="m 1620.2847,33.562031 a 183.17804,184.41415 0 1 1 -0,-1.00522" transform="matrix(0.16065549,0,0,0.15958836,-198.87721,26.644369)" class="cls-81"></path>
    <path d="m 1607.1527,32.108135 a 169.6478,168.69545 0 1 1 -0,-0.919538" transform="matrix(0.16167942,0,0,0.16260208,-200.41309,26.779629)" class="cls-82"></path>
    <path d="m 32.012627,13.87297 c -9.978432,0 -18.1,8.116434 -18.1,18.107501 0,9.991066 8.121568,18.107501 18.1,18.107501 9.978432,0 18.097488,-8.116434 18.097488,-18.107501 a 1.1300815,1.1378752 0 0 0 0,-0.01499 1.1300815,1.1378752 0 0 0 0,-0.005 1.1300815,1.1378752 0 0 0 0,-0.08 C 50.055859,21.927879 41.952787,13.872988 32.012627,13.872988 z m -1.622512,2.355008 c 0.0016,-1.6e-4 0.0034,1.6e-4 0.0051,0 l -0.02501,0.0625 c 1.655248,0.666048 3.251952,1.479424 4.765008,2.424992 1.817488,1.13584 3.508608,2.473072 5.047504,3.965005 -0.309216,1.836424 -1.016992,3.611369 -2.067504,5.147499 -0.288192,0.421404 -0.601504,0.827334 -0.937504,1.217501 l -4.257504,-3.972501 -0.0075,-0.0075 -0.0099,-0.0075 c -2.367488,-2.1214 -5.146304,-3.770304 -8.142496,-4.832496 -0.817664,-0.289888 -1.6512,-0.5336 -2.494992,-0.735008 2.285712,-1.783696 5.075968,-2.953792 8.124992,-3.262496 z m 5.797504,0.472496 c 3.099296,0.841504 5.816464,2.59768 7.847504,4.962496 -0.712432,-0.266656 -1.4524,-0.454 -2.207504,-0.559999 -1.669648,-1.626913 -3.512816,-3.074368 -5.49,-4.31 -0.04973,-0.03107 -0.100096,-0.0617 -0.15,-0.0925 z m -15.957504,4.687504 c 1.282128,0.213216 2.544816,0.538138 3.77,0.972493 2.70768,0.959915 5.230943,2.457613 7.372512,4.372499 0.0058,0.0051 0.01184,0.0099 0.01749,0.01499 l 4.192512,3.91 c -1.106064,0.994219 -2.340784,1.8975 -3.62,2.752501 -1.235872,0.826017 -2.506449,1.598217 -3.797505,2.335 -1.421711,-1.183127 -2.917775,-2.278624 -4.482495,-3.265 -2.278576,-1.436376 -4.69272,-2.653861 -7.202512,-3.63 0.566608,-2.835363 1.889952,-5.39544 3.75,-7.462501 z m 22.107504,2.119992 c 0.971488,0.241627 1.902224,0.66057 2.72,1.232501 0.646992,0.452485 1.229152,1.001062 1.72,1.62 0.0054,2.467189 -0.512112,4.941526 -1.51,7.197499 -1.309088,2.959534 -3.4548,5.559466 -6.087504,7.470001 -2.476624,1.797302 -5.395968,2.996432 -8.42,3.467496 -0.581488,-0.957832 -0.954033,-2.118896 -1.197489,-3.334995 -0.222368,-1.11069 -0.345904,-2.242261 -0.372512,-3.375 1.373569,-0.78051 2.718945,-1.609556 4.032513,-2.487502 2.48224,-1.659061 4.974848,-3.576043 6.762496,-6.19 1.15288,-1.685808 1.953472,-3.599722 2.352496,-5.6 z m -26.144992,7.67 c 0.81176,0.329131 1.613952,0.685768 2.402496,1.067501 l -0.31,1.182499 -0.0051,0.0175 -0.0024,0.02 c -0.494928,2.190421 -0.434608,4.47773 0.13,6.635001 -1.419104,-2.373465 -2.234992,-5.149624 -2.234992,-8.120001 0,-0.269311 0.0067,-0.536514 0.02,-0.802501 z m 4.464992,2.142502 c 0.615088,0.343376 1.221744,0.701941 1.817504,1.0775 1.55504,0.980274 3.040048,2.069608 4.444992,3.255 0.01952,1.326986 0.156992,2.651266 0.417504,3.952502 0.358944,1.792859 0.979535,3.690723 2.317503,5.212499 0.300337,0.341608 0.628257,0.651584 0.974993,0.932504 -1.689841,-0.145448 -3.302656,-0.555465 -4.797488,-1.187505 -1.273696,-0.774335 -2.401776,-1.799168 -3.295008,-2.992496 -2.005456,-2.67926 -2.783616,-6.300393 -2.057504,-9.567505 l 0.0024,-0.0125 0.175008,-0.67 z m 27.132496,0.0475 c -0.606896,7.010073 -5.765248,12.704282 -12.52,14.110002 l 0.0024,-0.0075 c -0.746048,-0.14936 -1.47272,-0.411512 -2.142496,-0.772504 -0.154128,-0.08307 -0.303776,-0.172072 -0.45,-0.265 2.813472,-0.654872 5.492112,-1.871576 7.832496,-3.57 2.948528,-2.139735 5.347024,-5.040469 6.827504,-8.3875 0.161328,-0.364739 0.311072,-0.733984 0.45,-1.107501 z"></path>
  </g>
</svg>