<?xml version="1.0" encoding="UTF-8" standalone="no"?>
<!-- Created with Inkscape (http://www.inkscape.org/) -->

<svg  xmlns="http://www.w3.org/2000/svg" viewBox="0 0 64 64"><defs><style>.cls-1{fill:#6d51aa;}.cls-2{fill:#fff;} path.cls-80{fill:#ffe47f;} path.cls-81{fill:#ffae1a;}path, rect, ellipse, polygon, circle {fill: #58389d;} path.cls-82 {fill: #fff;}</style></defs><title>Животные</title>
  <g>

    <path d="m 1632.9115,32.153568 a 197.17009,196.93428 0 1 1 -0,-1.073465" transform="matrix(0.16229635,0,0,0.16250059,-201.01373,26.775505)" class="cls-80"></path>
    <path d="m 1620.2847,33.562031 a 183.17804,184.41415 0 1 1 -0,-1.00522" transform="matrix(0.16065549,0,0,0.15958836,-198.87721,26.644369)" class="cls-81"></path>
    <path d="m 1607.1527,32.108135 a 169.6478,168.69545 0 1 1 -0,-0.919538" transform="matrix(0.16167942,0,0,0.16260208,-200.41309,26.779629)" class="cls-82"></path>
    <g transform="matrix(0.8,0,0,-0.8,24.619323,16.481364)">
      <path d="m 361.8125,346.15625 c -30.87,0 -56,31.57625 -56,70.40625 0,38.83 25.13,70.4375 56,70.4375 30.87,0 55.96875,-31.6075 55.96875,-70.4375 0,-38.83 -25.09875,-70.40625 -55.96875,-70.40625 z m 128.03125,0 c -30.86,0 -55.96875,31.57625 -55.96875,70.40625 0,38.83 25.10875,70.4375 55.96875,70.4375 30.86,0 55.96875,-31.6075 55.96875,-70.4375 0,-38.83 -25.10875,-70.40625 -55.96875,-70.40625 z m -128.03125,27.5 c 15.43,0 28.46875,19.65625 28.46875,42.90625 0,23.26 -13.03875,42.90625 -28.46875,42.90625 -15.43,0 -28.46875,-19.64625 -28.46875,-42.90625 0,-23.25 13.03875,-42.90625 28.46875,-42.90625 z m 128.03125,0 c 15.42,0 28.46875,19.65625 28.46875,42.90625 0,23.26 -13.04875,42.90625 -28.46875,42.90625 -15.43,0 -28.46875,-19.64625 -28.46875,-42.90625 0,-23.25 13.03875,-42.90625 28.46875,-42.90625 z m 92.625,77.625 c -23.16453,-0.32983 -44.38937,19.5875 -50.0625,48.40625 -2.13663,10.85719 -1.74707,21.36921 0.71875,30.71875 -1.75446,0.72159 -3.50885,1.43868 -5.25,2.1875 -7.6693,3.29838 -15.34518,6.93048 -22.875,11.03125 -16.61325,-26.55914 -46.00023,-43.6875 -79.1875,-43.6875 -43.64,0 -80.70125,29.56125 -90.78125,71.28125 -33.73,17.92 -53.25125,54.33625 -49.03125,92.90625 4.96,45.34 32.74,76.8475 72.5,82.1875 15.33,2.07 30.29,-3.37625 43.5,-8.15625 8.96,-3.24 17.4125,-6.3125 23.8125,-6.3125 4.57415,0 10.24533,1.61568 16.375,3.71875 2.05154,5.68774 4.32001,11.28943 6.78125,16.8125 l -14.0625,16.75 c -4.89644,6.42965 -3.90032,15.2325 1.67405,20.05929 6.47008,4.84287 15.26437,3.77373 20.0447,-1.84054 L 470.65625,770.625 c 15.97742,4.0046 32.36012,6.40915 48.8125,7.15625 23.88348,1.0848 49.02726,-1.3335 72.34375,-11.4375 22.0049,-9.53582 40.77173,-25.38607 54.3125,-44.875 14.29167,-20.56966 22.13673,-43.91727 27.5,-66.65625 4.76662,-20.20936 7.82063,-40.92843 8.6875,-61.84375 1.04433,-25.19687 -1.10153,-50.51987 -6.34375,-75.1875 -0.64453,-3.24172 -2.46438,-6.23662 -5.04473,-8.30203 -2.58036,-2.06542 -5.90109,-3.18524 -9.20527,-3.10422 -6.16248,-0.0408 -12.55774,-0.12424 -18.21875,0.0312 -5.85476,0.16365 -11.69688,0.52486 -17.53125,1.03125 1.41685,-27.47804 -13.25744,-50.84226 -36.25,-55.375 -2.4225,-0.48 -4.85367,-0.74713 -7.25,-0.78125 z m -313.28125,0.0312 c -2.39877,0.0317 -4.82375,0.27375 -7.25,0.75 -25.88,5.1 -41.22875,34.0025 -34.96875,65.8125 2.88,14.64 9.93375,27.5775 19.84375,36.4375 8.79,7.85 19.0525,11.96875 29.5625,11.96875 2.62,0 5.27625,-0.26125 7.90625,-0.78125 13.19,-2.6 23.9875,-11.3125 30.4375,-24.5625 5.81,-11.94 7.42125,-26.58875 4.53125,-41.21875 -5.67313,-28.83687 -26.87436,-48.7123 -50.0625,-48.40625 z m 0.53125,27.5 c 9.78,0 19.55125,11.08875 22.53125,26.21875 1.73,8.79 0.92875,17.285 -2.28125,23.875 -1.82,3.75 -5.2,8.45375 -11,9.59375 -5.8,1.15 -10.7025,-1.93875 -13.8125,-4.71875 -5.48,-4.89 -9.4575,-12.42875 -11.1875,-21.21875 -3.23,-16.4 2.73125,-31.42 13.28125,-33.5 0.82,-0.16 1.64875,-0.25 2.46875,-0.25 z m 312.21875,0 c 0.83,0 1.64875,0.09 2.46875,0.25 10.25405,2.03137 16.17296,16.27832 13.53125,32.125 -3.56137,0.64872 -7.1197,1.34916 -10.65625,2.125 -9.50709,2.08565 -18.88597,4.64707 -28.125,7.59375 -0.86672,-4.82445 -0.85683,-10.26203 0.25,-15.875 2.97,-15.12 12.75125,-26.21875 22.53125,-26.21875 z m -156.125,48.65625 c 23.50226,0 44.29923,12.14862 56,31 -5.14987,3.89791 -10.1256,8.12838 -14.8125,12.78125 -16.84155,16.71926 -29.18028,37.95474 -34.75,61.28125 -5.90169,24.71685 -3.93427,49.91776 1.28125,73.25 0.34491,1.93105 -6.14629,0.47285 -7.71875,0.46875 -11.23,0 -22.3775,3.09 -33.1875,7 -10.72,3.88 -21.8375,6.91125 -30.4375,5.78125 -26.99,-3.63 -45.2425,-25.255 -48.8125,-57.875 -3.17,-29 12.62125,-56.27625 39.28125,-67.90625 7.15587,-3.11576 7.2293,-2.26936 8.0625,-10.4375 5.1,-31.57 33.08375,-55.34375 65.09375,-55.34375 z m 222.75,7.1875 c 0.59388,-0.007 1.18735,0.003 1.78125,0 3.20071,18.84536 4.41656,38.0267 3.625,57.125 -0.78521,18.94502 -3.5458,37.88022 -7.9375,56.5 -4.92711,20.8898 -11.90199,40.78827 -23.1875,57.03125 -10.61939,15.28425 -25.46596,27.73089 -42.3125,35.03125 -17.93711,7.77295 -38.75051,10.08014 -59.78125,9.125 -9.8939,-0.44933 -19.74961,-1.61556 -29.5,-3.40625 l 22.53125,-26.84375 78.6875,-7.75 c 7.78684,-1.14634 13.18676,-7.82344 12.84437,-15.0057 -0.91929,-7.8169 -7.43642,-13.40882 -14.62562,-13.27555 -16.87021,1.58396 -33.94115,3.32359 -50.875,5 l 28.15625,-33.5625 44.65625,-4.40625 c 7.78684,-1.14634 13.18676,-7.82344 12.84437,-15.0057 -0.91928,-7.8169 -7.43643,-13.40882 -14.62562,-13.27555 -5.52173,0.52682 -11.22426,1.104 -16.8125,1.6562 l 23.3125,-27.78125 c 3.55175,-4.11257 4.41387,-10.35147 2.11053,-15.27313 -5.95236,-9.30596 -17.19165,-10.80821 -23.82928,-2.94552 l -23.5625,28.0625 -1.25,-16.375 C 569.93084,581.69694 563.76409,576.16029 556.78125,576 c -8.58794,0.42197 -14.81725,7.64105 -14.25,15.4375 L 546,636.71875 518.09375,669.96875 514.28125,620 c -0.87951,-7.5723 -7.0282,-13.10599 -14,-13.28125 -8.60196,0.4216 -14.83521,7.66171 -14.25,15.46875 L 492.0625,701 l -22.5,26.8125 c -3.40395,-9.20787 -6.20289,-18.64135 -8.34375,-28.21875 -4.59258,-20.54542 -5.94634,-41.45442 -1.40625,-60.46875 4.26406,-17.85829 13.9482,-34.63786 27.15625,-47.75 14.03653,-13.9346 32.40814,-24.27025 52.125,-32.75 17.57428,-7.55828 35.72916,-13.56193 54.25,-17.625 18.12341,-3.97588 36.66262,-6.11352 55.21875,-6.34375 z" transform="matrix(0.1,0,0,-0.1,-36.181266,37.366312)"></path>
    </g>
  </g>
</svg>
