<?xml version="1.0" encoding="UTF-8" standalone="no"?>
<!-- Created with Inkscape (http://www.inkscape.org/) -->

<svg  xmlns="http://www.w3.org/2000/svg" viewBox="0 0 64 64"><defs><style>.cls-1{fill:#6d51aa;}.cls-2{fill:#fff;} path.cls-80{fill:#ffe47f;} path.cls-81{fill:#ffae1a;}path, rect, ellipse, polygon, circle {fill: #58389d;} path.cls-82 {fill: #fff;}</style></defs><title>Образование</title>
  <g>

    <path d="m 1632.9115,32.153568 a 197.17009,196.93428 0 1 1 -0,-1.073465" transform="matrix(0.16229635,0,0,0.16250059,-201.01373,26.775505)" class="cls-80"></path>
    <path d="m 1620.2847,33.562031 a 183.17804,184.41415 0 1 1 -0,-1.00522" transform="matrix(0.16065549,0,0,0.15958836,-198.87721,26.644369)" class="cls-81"></path>
    <path d="m 1607.1527,32.108135 a 169.6478,168.69545 0 1 1 -0,-0.919538" transform="matrix(0.16167942,0,0,0.16260208,-200.41309,26.779629)" class="cls-82"></path>
    <path d="m 25.832136,16.851109 c -2.918641,0.23385 -5.795921,0.92574 -8.502481,2.04249 -0.70856,0.2807 -0.70232,0.96113 -0.7,1.555 l -3.10256,0 c -0.6416,0.0363 -1.12392,0.54859 -1.13248,1.135 l 0,24.48751 c 0.03568,0.6406 0.54728,1.12263 1.13248,1.1325 l 36.915041,0 c 0.64168,-0.0349 1.125039,-0.54611 1.134959,-1.1325 l 0,-24.48751 c -0.03528,-0.64262 -0.547439,-1.12635 -1.134959,-1.135 l -3.1,0 0,-0.2 c 0.02552,-0.61865 -0.10864,-1.12448 -0.69752,-1.355 -2.70664,-1.11675 -5.586401,-1.80864 -8.504961,-2.04249 -1.240239,-0.0952 -2.479919,-0.0996 -3.617519,0.0925 -0.876961,0.15138 -1.730481,0.41997 -2.535041,0.79751 -0.8052,-0.37754 -1.66048,-0.64613 -2.53744,-0.79751 -1.235519,-0.2004 -2.427119,-0.18526 -3.617519,-0.0925 z m 3.232479,2.32749 c 0.61408,0.106 1.21608,0.28684 1.78752,0.53751 l 0,19.975 c -0.45688,-0.14941 -0.92576,-0.26564 -1.4,-0.3475 -1.233519,-0.20184 -2.457919,-0.18394 -3.617519,-0.0925 -2.362721,0.18931 -4.697601,0.68044 -6.937521,1.4525 l 0,-19.9925 c 2.2812,-0.86379 4.68648,-1.40522 7.117521,-1.6 1.03056,-0.0747 2.10608,-0.0916 3.049999,0.0675 z m 8.89504,-0.0675 c 2.43024,0.19473 4.83448,0.7367 7.114961,1.6 l 0,19.99 c -2.239601,-0.77146 -4.575841,-1.26078 -6.937521,-1.45 -1.240159,-0.0952 -2.479919,-0.0996 -3.617439,0.0925 -0.47352,0.0817 -0.941361,0.19845 -1.397521,0.3475 l 0,-19.975 c 0.57144,-0.25067 1.173441,-0.4315 1.787521,-0.5375 1.03936,-0.16801 2.08048,-0.14392 3.049999,-0.0675 z m -12.93504,2.5775 c -1.45064,0.18288 -2.88432,0.48561 -4.28496,0.905 -0.616,0.21089 -0.94144,0.84539 -0.78,1.4175 0.22048,0.61053 0.86256,0.92476 1.43,0.755 1.28048,-0.38342 2.59376,-0.6603 3.92,-0.8275 1.073441,-0.13863 2.110161,-0.17272 3.10744,-0.055 0.64144,0.0423 1.18288,-0.40833 1.26256,-0.99 0.04112,-0.64154 -0.40912,-1.18309 -0.99,-1.2625 -1.244399,-0.15332 -2.507839,-0.0868 -3.66504,0.0575 z m 10.270001,-0.0575 c -0.6536,0.0897 -1.09944,0.66693 -1.03752,1.265 0.11552,0.6512 0.71032,1.07108 1.30752,0.985 1.0548,-0.12857 2.142159,-0.0655 3.109999,0.055 1.32616,0.16719 2.63952,0.44409 3.92,0.8275 0.6284,0.16048 1.249201,-0.19169 1.427521,-0.755 0.15128,-0.63204 -0.20952,-1.24766 -0.777521,-1.4175 -1.40064,-0.41938 -2.83688,-0.72212 -4.28752,-0.905 -1.26904,-0.15859 -2.480319,-0.1944 -3.662479,-0.055 z m -20.632481,1.0875 1.96752,0 0,19.36 c 0,0.75102 0.23112,1.33808 1.02,1.4075 0.0032,8e-4 0.0064,0.002 0.0099,0.002 0.24152,0.008 0.51272,-0.0559 0.69248,-0.16252 2.44232,-0.98914 5.03848,-1.60455 7.664961,-1.815 1.06352,-0.0852 2.09264,-0.0977 3.049999,0.0675 0.77592,0.13393 1.53296,0.39041 2.23256,0.7525 0.46096,0.31647 1.07008,0.28614 1.46248,-0.045 0.67496,-0.33839 1.401441,-0.57915 2.144961,-0.7075 0.95744,-0.16526 1.98656,-0.15271 3.049999,-0.0675 2.5996,0.2083 5.1696,0.81358 7.590001,1.785 0.34752,0.25018 0.84112,0.27862 1.21504,0.07 0.54512,-0.29148 0.58272,-0.78319 0.58,-1.2975 l 0,-19.35 1.96752,0 0,22.2175 -34.647521,0 0,-22.2175 z m 10.36248,5.3625 c -1.45064,0.18288 -2.88432,0.48562 -4.28496,0.905 -0.616,0.2109 -0.94144,0.84539 -0.78,1.4175 0.22048,0.61053 0.86256,0.92476 1.43,0.755 1.28048,-0.38341 2.59376,-0.66031 3.92,-0.8275 1.073361,-0.13463 2.109601,-0.17254 3.10744,-0.055 0.6552,0.0661 1.22088,-0.3881 1.30256,-0.9825 0.04144,-0.65657 -0.4336,-1.20754 -1.03,-1.2675 -1.244159,-0.15168 -2.508079,-0.0891 -3.66504,0.055 z m 10.270001,-0.055 c -0.6536,0.0897 -1.09944,0.66693 -1.03752,1.265 0.11552,0.6512 0.71032,1.07109 1.30752,0.985 1.0548,-0.12857 2.142159,-0.0655 3.109999,0.055 1.32616,0.16719 2.63952,0.44409 3.92,0.8275 0.6284,0.16048 1.249201,-0.19169 1.427521,-0.755 0.15128,-0.63204 -0.20952,-1.24766 -0.777521,-1.4175 -1.40064,-0.41938 -2.8344,-0.72212 -4.28496,-0.905 -1.2696,-0.15848 -2.482399,-0.19445 -3.665039,-0.055 z m -10.270001,6.455 c -1.45064,0.18288 -2.88432,0.48811 -4.28496,0.9075 -0.63752,0.19553 -0.98024,0.83988 -0.81504,1.425 0.22672,0.6268 0.8888,0.93824 1.46504,0.745 1.28048,-0.38341 2.59376,-0.66031 3.92,-0.8275 1.073441,-0.13664 2.110401,-0.17018 3.10744,-0.0525 0.64144,0.0423 1.18288,-0.40833 1.26256,-0.99 0.04112,-0.64154 -0.40912,-1.18309 -0.99,-1.2625 -1.244159,-0.15163 -2.507039,-0.0892 -3.66504,0.055 z m 10.270001,-0.055 c -0.6536,0.0897 -1.09944,0.66693 -1.03752,1.265 0.11552,0.6512 0.71032,1.07109 1.30752,0.985 1.0548,-0.12857 2.142159,-0.0655 3.109999,0.055 1.32616,0.16719 2.63952,0.44409 3.92,0.8275 0.6284,0.16048 1.249201,-0.19169 1.427521,-0.755 0.15128,-0.63204 -0.20952,-1.24766 -0.777521,-1.4175 -1.40064,-0.41938 -2.83688,-0.72212 -4.28752,-0.905 -1.26904,-0.15858 -2.480319,-0.19439 -3.662479,-0.055 z"></path>
  </g>
</svg>