<?xml version="1.0" encoding="UTF-8" standalone="no"?>
<svg
   xmlns:dc="http://purl.org/dc/elements/1.1/"
   xmlns:cc="http://creativecommons.org/ns#"
   xmlns:rdf="http://www.w3.org/1999/02/22-rdf-syntax-ns#"
   xmlns:svg="http://www.w3.org/2000/svg"
   xmlns="http://www.w3.org/2000/svg"
   height="100%"
   width="100%"
   version="1.1"
   viewBox="0 0 64 64"
  >
  <metadata
     id="metadata13">
    <rdf:RDF>
      <cc:Work
         rdf:about="">
        <dc:format>image/svg+xml</dc:format>
        <dc:type
           rdf:resource="http://purl.org/dc/dcmitype/StillImage" />
        <dc:title></dc:title>
      </cc:Work>
    </rdf:RDF>
  </metadata>
  <g transform="translate(-0.54237288,-0.81355932)"
    style="fill:#ffae1a;fill-opacity:1;stroke:none;stroke-width:1px;stroke-linecap:butt;stroke-linejoin:miter;stroke-opacity:1">
    <path d="m 36.997579,52.663436 0,-4.285714 21.428571,0 0,4.285714 -21.428571,0 z m -12.857143,-17.142857 0,-4.285715 34.285714,0 0,4.285715 -34.285714,0 z m 21.428571,-17.142857 0,-4.285715 12.857143,0 0,4.285715 -12.857143,0 z m 17.142857,27.857142 c 0,-1.171875 -0.970982,-2.142857 -2.142857,-2.142857 l -55.7142854,0 c -1.171875,0 -2.1428571,0.970982 -2.1428571,2.142857 l 0,8.571429 c 0,1.171875 0.9709821,2.142857 2.1428571,2.142857 l 55.7142854,0 c 1.171875,0 2.142857,-0.970982 2.142857,-2.142857 l 0,-8.571429 z m 0,-17.142857 c 0,-1.171875 -0.970982,-2.142857 -2.142857,-2.142857 l -55.7142854,0 c -1.171875,0 -2.1428571,0.970982 -2.1428571,2.142857 l 0,8.571429 c 0,1.171875 0.9709821,2.142857 2.1428571,2.142857 l 55.7142854,0 c 1.171875,0 2.142857,-0.970982 2.142857,-2.142857 l 0,-8.571429 z m 0,-17.142857 c 0,-1.171875 -0.970982,-2.1428571 -2.142857,-2.1428571 l -55.7142854,0 c -1.171875,0 -2.1428571,0.9709821 -2.1428571,2.1428571 l 0,8.571429 c 0,1.171875 0.9709821,2.142857 2.1428571,2.142857 l 55.7142854,0 c 1.171875,0 2.142857,-0.970982 2.142857,-2.142857 l 0,-8.571429 z" />
  </g>
</svg>
