<?xml version="1.0" encoding="UTF-8" standalone="no"?>
<svg
   xmlns:dc="http://purl.org/dc/elements/1.1/"
   xmlns:cc="http://creativecommons.org/ns#"
   xmlns:rdf="http://www.w3.org/1999/02/22-rdf-syntax-ns#"
   xmlns:svg="http://www.w3.org/2000/svg"
   xmlns="http://www.w3.org/2000/svg"
   height="100%"
   width="100%"
   version="1.1"
   viewBox="0 0 64 64"
  >
  <metadata>
    <rdf:RDF>
      <cc:Work
         rdf:about="">
        <dc:format>image/svg+xml</dc:format>
        <dc:type
           rdf:resource="http://purl.org/dc/dcmitype/StillImage" />
        <dc:title></dc:title>
      </cc:Work>
    </rdf:RDF>
  </metadata>
  <g style="fill:#ffae1a;fill-opacity:1;stroke:none;stroke-width:1px;stroke-linecap:butt;stroke-linejoin:miter;stroke-opacity:1">
    <path d="m 31.901634,43.807509 -1.875,0 0,-3.214285 -3.214285,0 0,-1.875 3.883928,-3.883929 5.089286,5.089286 -3.883929,3.883928 z M 46.633777,19.700366 c 0.30134,0.30134 0.267857,0.803572 -0.03348,1.104911 l -11.71875,11.71875 c -0.301339,0.301339 -0.803571,0.334822 -1.104911,0.03348 -0.301339,-0.301339 -0.267857,-0.803571 0.03348,-1.10491 l 11.71875,-11.71875 c 0.301339,-0.30134 0.803571,-0.334822 1.10491,-0.03348 z m 2.678572,19.888393 c 0,-0.435268 -0.267857,-0.803571 -0.669643,-0.970982 -0.401786,-0.167411 -0.837054,-0.100446 -1.171875,0.234375 l -2.142857,2.142857 c -0.200893,0.200893 -0.30134,0.46875 -0.30134,0.736607 l 0,4.21875 c 0,2.946429 -2.410714,5.357143 -5.357142,5.357143 l -27.857143,0 c -2.9464289,0 -5.3571432,-2.410714 -5.3571432,-5.357143 l 0,-27.857142 c 0,-2.946429 2.4107143,-5.357143 5.3571432,-5.357143 l 27.857143,0 c 0.502232,0 1.004464,0.06696 1.506696,0.200893 0.368304,0.133928 0.770089,0.03348 1.071429,-0.267858 l 1.640625,-1.640625 c 0.267857,-0.267857 0.368303,-0.602678 0.301339,-0.970982 C 44.122617,9.7226879 43.888242,9.4213486 43.586902,9.28742 42.348063,8.7182236 41.008777,8.4503664 39.669492,8.4503664 l -27.857143,0 c -5.323661,0 -9.6428575,4.3191966 -9.6428575,9.6428576 l 0,27.857142 c 0,5.323661 4.3191965,9.642858 9.6428575,9.642858 l 27.857143,0 c 5.32366,0 9.642857,-4.319197 9.642857,-9.642858 l 0,-6.361607 z m -3.214286,-24.709821 -22.5,22.5 0,9.642857 9.642857,0 22.5,-22.5 -9.642857,-9.642857 z m 14.866071,4.419643 c 1.23884,-1.23884 1.23884,-3.314732 0,-4.553572 L 55.874849,9.6557236 c -1.23884,-1.2388393 -3.314732,-1.2388393 -4.553572,0 l -3.080357,3.0803574 9.642857,9.642857 3.080357,-3.080357 z" />
  </g>
</svg>
