<?xml version="1.0" encoding="UTF-8" standalone="no"?>
<svg
   xmlns:dc="http://purl.org/dc/elements/1.1/"
   xmlns:cc="http://creativecommons.org/ns#"
   xmlns:rdf="http://www.w3.org/1999/02/22-rdf-syntax-ns#"
   xmlns:svg="http://www.w3.org/2000/svg"
   xmlns="http://www.w3.org/2000/svg"
   height="100%"
   width="100%"
   version="1.1"
   viewBox="0 0 64 64"
   data-name="electronic-cards"
   >
  <metadata >
    <rdf:RDF>
      <cc:Work
         rdf:about="">
        <dc:format>image/svg+xml</dc:format>
        <dc:type
           rdf:resource="http://purl.org/dc/dcmitype/StillImage" />
        <dc:title></dc:title>
      </cc:Work>
    </rdf:RDF>
  </metadata>
  <g transform="translate(0,1.1505466)" style="fill:#ffae1a;fill-opacity:1;stroke:none;stroke-width:1px">
    <path d="m 57.623761,6.5489333 -51.339286,0 c -2.8236607,0 -5.1339286,2.3102679 -5.1339286,5.1339287 l 0,39.017857 c 0,2.823661 2.3102679,5.133929 5.1339286,5.133929 l 51.339286,0 c 2.82366,0 5.133928,-2.310268 5.133928,-5.133929 l 0,-39.017857 c 0,-2.8236608 -2.310268,-5.1339287 -5.133928,-5.1339287 z m -51.339286,4.1071427 51.339286,0 c 0.54548,0 1.026785,0.481306 1.026785,1.026786 l 0,7.1875 -53.3928567,0 0,-7.1875 c 0,-0.54548 0.4813058,-1.026786 1.0267857,-1.026786 z m 51.339286,41.071429 -51.339286,0 c -0.5454799,0 -1.0267857,-0.481306 -1.0267857,-1.026786 l 0,-19.508929 53.3928567,0 0,19.508929 c 0,0.54548 -0.481305,1.026786 -1.026785,1.026786 z m -48.2589289,-4.107143 8.2142859,0 0,-4.107143 -8.2142859,0 0,4.107143 z m 12.3214289,0 12.321428,0 0,-4.107143 -12.321428,0 0,4.107143 z" />
  </g>
</svg>
