<?xml version="1.0" encoding="UTF-8" standalone="no"?>
<svg
   xmlns:dc="http://purl.org/dc/elements/1.1/"
   xmlns:cc="http://creativecommons.org/ns#"
   xmlns:rdf="http://www.w3.org/1999/02/22-rdf-syntax-ns#"
   xmlns:svg="http://www.w3.org/2000/svg"
   xmlns="http://www.w3.org/2000/svg"
   height="100%"
   width="100%"
   version="1.1"
   viewBox="0 0 64 64"
   >
  <metadata>
    <rdf:RDF>
      <cc:Work
         rdf:about="">
        <dc:format>image/svg+xml</dc:format>
        <dc:type
           rdf:resource="http://purl.org/dc/dcmitype/StillImage" />
        <dc:title></dc:title>
      </cc:Work>
    </rdf:RDF>
  </metadata>
  <g style="fill:#ffae1a;fill-opacity:1;stroke:none;stroke-width:1px;stroke-linecap:butt;stroke-linejoin:miter;stroke-opacity:1">
    <path d="m 7.8258441,36.331912 c -2.109375,0 -2.109375,-3.214285 0,-3.214285 2.109375,0 2.109375,3.214285 0,3.214285 z M 44.815241,34.875439 c 1.833148,2.360491 0.276228,5.499442 -2.712053,5.499442 -0.301339,0 -0.853795,-0.02511 -1.079799,-0.251116 0.07533,0.828683 -0.678014,1.883371 -1.255581,2.410714 -0.878906,0.828683 -1.983817,1.205358 -3.189174,1.104911 -0.577567,1.933594 -2.762277,2.988281 -4.645647,2.33538 -0.803571,0.803571 -2.008929,1.180245 -3.138951,1.180245 -2.18471,0 -4.168527,-1.305803 -5.700335,-2.787388 l -7.458147,-7.33259 c -0.878906,-0.853794 -1.883371,-0.703125 -2.988281,-0.703125 l 0,-13.660714 3.892299,0 3.967634,-3.967634 c 1.054687,-1.054687 2.486049,-1.657366 3.967634,-1.657366 1.682477,0 3.565848,-0.276228 5.122767,0.527344 l -4.444754,5.172991 c -1.958705,2.285156 -1.958705,5.599888 -0.05022,7.910156 2.686942,3.214286 7.633928,3.289621 10.396205,0.15067 l 3.138951,-3.515625 c 2.260045,2.360491 4.193638,4.99721 6.177455,7.583705 z m 3.992746,1.456473 c -0.15067,-1.305803 -0.728237,-2.51116 -1.506696,-3.515625 -1.230469,-1.582031 -2.435826,-3.214285 -3.691407,-4.771205 -0.929129,-1.104911 -1.958705,-2.18471 -2.912946,-3.28962 0.527344,-1.632255 -1.582031,-2.837612 -2.737165,-1.55692 l -4.846541,5.47433 c -1.481584,1.657366 -4.118303,1.632255 -5.549665,-0.07534 -0.904018,-1.10491 -0.904018,-2.66183 0.02511,-3.766741 l 5.248326,-6.10212 c 0.904018,-1.054688 2.260044,-1.682478 3.666294,-1.682478 l 4.193639,0 c 1.607143,0 3.189174,0.703125 4.243861,1.908482 l 3.942523,4.52009 2.335379,0 0,12.857142 -2.410714,0 z m 7.232143,0 c -2.109375,0 -2.109375,-3.214285 0,-3.214285 2.109375,0 2.109375,3.214285 0,3.214285 z m 4.821428,-14.464285 c 0,-0.878907 -0.728236,-1.607143 -1.607142,-1.607143 l -8.914621,0 C 47.45196,16.945752 45.468143,13.831912 40.696938,13.831912 l -4.193639,0 c -1.632254,0 -3.214285,0.502233 -4.5452,1.40625 -1.330916,-0.904017 -2.912947,-1.40625 -4.545201,-1.40625 l -2.938058,0 c -4.36942,0 -6.378349,2.712054 -9.291295,5.625 l -10.5719866,0 c -0.8789063,0 -1.6071429,0.728237 -1.6071429,1.607143 l 0,16.875 c 0,0.878907 0.7282366,1.607143 1.6071429,1.607143 l 8.9899556,0 7.207031,7.081473 c 3.088728,3.038505 7.759487,5.072545 11.902902,2.737166 2.234933,0.150669 4.469866,-0.904018 5.851004,-2.661831 1.858259,-0.401786 3.515625,-1.607143 4.595424,-3.189174 2.310268,-0.326451 4.294085,-1.782924 5.198103,-3.967634 l 10.898438,0 c 0.878906,0 1.607142,-0.728236 1.607142,-1.607143 l 0,-16.071428 z" />
  </g>
</svg>
