<?xml version="1.0" encoding="UTF-8" standalone="no"?>
<!-- Created with Inkscape (http://www.inkscape.org/) -->

<svg
   xmlns:dc="http://purl.org/dc/elements/1.1/"
   xmlns:cc="http://creativecommons.org/ns#"
   xmlns:rdf="http://www.w3.org/1999/02/22-rdf-syntax-ns#"
   xmlns:svg="http://www.w3.org/2000/svg"
   xmlns="http://www.w3.org/2000/svg"
   version="1.1"
   width="100%"
   height="100%"
   viewBox="0 0 64 64"
   id="Layer_1">
  <title
     id="title7">auto</title>
  <metadata
     id="metadata13">
    <rdf:RDF>
      <cc:Work
         rdf:about="">
        <dc:format>image/svg+xml</dc:format>
        <dc:type
           rdf:resource="http://purl.org/dc/dcmitype/StillImage" />
        <dc:title>auto</dc:title>
      </cc:Work>
    </rdf:RDF>
  </metadata>
  <defs
     id="defs3">
    <style
       id="style5" />
  </defs>
  <g
     id="text2999"
     style="font-size:64px;font-style:normal;font-variant:normal;font-weight:normal;font-stretch:normal;line-height:125%;letter-spacing:0px;word-spacing:0px;fill:#fff;fill-opacity:1;stroke:none;font-family:FontAwesome;-inkscape-font-specification:FontAwesome">
    <path
       d="m 55.478044,49.615507 c 0.02905,-3.207076 -0.28709,-6.34868 -0.948436,-9.424819 -0.661436,-3.07611 -1.842679,-5.630399 -3.543733,-7.662874 -1.701136,-2.032431 -4.096691,-3.086687 -7.18667,-3.16277 -1.459144,1.424907 -3.139241,2.539515 -5.040296,3.343826 -1.901112,0.804355 -3.947288,1.21359 -6.138531,1.227707 -2.191291,-0.01412 -4.237467,-0.423352 -6.138535,-1.227706 -1.901101,-0.804311 -3.581197,-1.918919 -5.040293,-3.343827 -3.090028,0.07608 -5.485583,1.13034 -7.186674,3.162769 -1.7011,2.032473 -2.882342,4.586761 -3.543732,7.662873 -0.661391,3.076141 -0.9775348,6.217745 -0.9484325,9.424821 0.055804,2.675656 0.8013555,4.904871 2.2366575,6.687651 1.435297,1.782776 3.225515,2.708392 5.370659,2.776851 l 30.500699,0 c 2.145097,-0.06846 3.935314,-0.994075 5.370657,-2.77685 1.435255,-1.782779 2.180807,-4.011994 2.23666,-6.687652 z M 46.334977,17.936211 C 46.236724,14.052233 44.897408,10.820019 42.317027,8.2395592 39.736581,5.6591917 36.504367,4.319877 32.620378,4.221611 28.736341,4.319878 25.504127,5.6591933 22.923726,8.2395601 20.343299,10.82002 19.003984,14.052233 18.905778,17.936211 c 0.09821,3.88405 1.437523,7.116264 4.017949,9.69665 2.5804,2.58044 5.812614,3.919755 9.696651,4.017949 3.883991,-0.09819 7.116204,-1.437509 9.69665,-4.01795 2.580381,-2.580387 3.919696,-5.8126 4.017949,-9.696649 z"
       id="path3004" />
  </g>
</svg>
