<svg id="Layer_1" data-name="Layer 1" xmlns="http://www.w3.org/2000/svg" viewBox="0 0 31.96 26.47"><defs><style>.cls-1{fill:none;}.cls-1,.cls-2{stroke:#fff;stroke-miterlimit:10;stroke-width:1.64px;}.cls-2{fill:none;}</style></defs><title>newlocate</title><polygon class="cls-1" points="30.67 25.65 1.3 25.65 1.3 25.65 4.85 18.14 27.11 18.14 30.67 25.65"/><path class="cls-2" d="M487.33,3265.24a7,7,0,0,0-7.11,6.82c0,1.52,1.1,4.19,3.27,7.92,1.58,2.71,3.14,5,3.21,5.09l0.63,0.91,0.63-.91c0.07-.1,1.62-2.36,3.21-5.09,2.17-3.73,3.27-6.4,3.27-7.92A7,7,0,0,0,487.33,3265.24Zm0,10a3.25,3.25,0,1,1,3.38-3.24A3.32,3.32,0,0,1,487.33,3275.25Z" transform="translate(-471.35 -3264.42)"/></svg>