<svg id="Layer_1" data-name="Layer 1" xmlns="http://www.w3.org/2000/svg" viewBox="0 0 23.83 23.83"><defs><style>.cls-1{fill:#fff;}</style></defs><title>newphone</title><path class="cls-1" d="M531.46,3311.7L535,3317l-1.23,1.73-0.43.6a1.06,1.06,0,0,0,0,1.19,24.66,24.66,0,0,0,6.81,6.81,1.06,1.06,0,0,0,1.19,0l0.6-.43,1.73-1.23,5.29,3.53-0.42.88a2.52,2.52,0,0,1-1.32,1.25l-2.56,1.05a1.06,1.06,0,0,1-.94-0.07l-1.3-.77a40.46,40.46,0,0,1-13.28-13.28l-0.77-1.3a1.06,1.06,0,0,1-.07-0.94l1.05-2.56a2.52,2.52,0,0,1,1.25-1.32l0.88-.42m0-1.55a1.55,1.55,0,0,0-.66.15l-0.88.42a4.06,4.06,0,0,0-2,2.13l-1.05,2.56a2.62,2.62,0,0,0,.16,2.32l0.77,1.3a42,42,0,0,0,13.83,13.83l1.3,0.77a2.61,2.61,0,0,0,2.32.16l2.56-1.05a4.06,4.06,0,0,0,2.13-2l0.42-.88a1.55,1.55,0,0,0-.54-2l-5.29-3.53a1.55,1.55,0,0,0-1.76,0L541,3325.6l-0.33.23a23.48,23.48,0,0,1-5.89-5.89l0.23-.33,1.23-1.73a1.55,1.55,0,0,0,0-1.76l-3.53-5.29a1.55,1.55,0,0,0-1.29-.69h0Z" transform="translate(-526.65 -3310.15)"/></svg>